<?xml version="1.0" encoding="UTF-8" standalone="no"?>
<svg
   width="203"
   height="100"
   viewBox="0 0 203 100"
   fill="none"
   version="1.1"
   id="svg40"
   sodipodi:docname="age_rating_icon.svg"
   inkscape:version="1.4.2 (f4327f4, 2025-05-13)"
   xmlns:inkscape="http://www.inkscape.org/namespaces/inkscape"
   xmlns:sodipodi="http://sodipodi.sourceforge.net/DTD/sodipodi-0.dtd"
   xmlns="http://www.w3.org/2000/svg"
   xmlns:svg="http://www.w3.org/2000/svg">
  <sodipodi:namedview
     id="namedview42"
     pagecolor="#0000a6"
     bordercolor="#000000"
     borderopacity="0.25"
     inkscape:showpageshadow="2"
     inkscape:pageopacity="0"
     inkscape:pagecheckerboard="0"
     inkscape:deskcolor="#d1d1d1"
     showgrid="false"
     inkscape:zoom="4"
     inkscape:cx="57.875"
     inkscape:cy="101.875"
     inkscape:window-width="2560"
     inkscape:window-height="1494"
     inkscape:window-x="-11"
     inkscape:window-y="-11"
     inkscape:window-maximized="1"
     inkscape:current-layer="svg40" />
  <defs
     id="defs38">
    <clipPath
       id="clip0_710_1225">
      <rect
         width="90"
         height="100"
         fill="white"
         id="rect32" />
    </clipPath>
    <clipPath
       id="clip1_710_1225">
      <rect
         width="100"
         height="100"
         fill="white"
         transform="translate(103)"
         id="rect35" />
    </clipPath>
  </defs>
  <g
     id="g684"
     transform="translate(0.74480171,0.001759)">
    <g
       clip-path="url(#clip0_710_1225)"
       id="g10"
       transform="matrix(0.99996482,0,0,0.99996482,-0.74123094,0)">
      <rect
         width="90"
         height="100"
         rx="3"
         fill="#000000"
         fill-opacity="0.4"
         id="rect2"
         x="0"
         y="0" />
      <path
         d="m 63.4239,21.7214 c 3.57,3.1162 5.3549,7.5543 5.3549,13.1256 0,5.0047 -1.691,11.5203 -6.0125,18.9802 L 51.211,72.0519 H 70.0001 V 84.1001 H 32.5158 V 79.4174 L 50.9291,49.389 c 3.57,-5.7601 5.3549,-10.6704 5.3549,-14.542 0,-4.3437 -2.1607,-6.3267 -6.858,-6.3267 -3.6639,0 -6.5762,2.0774 -8.8309,6.5156 l -0.5637,1.0387 -8.3611,-7.271 0.2818,-0.5666 C 33.3613,25.0264 35.616,22.288 38.7162,20.2106 41.8164,18.0387 45.1984,17 48.9563,17 c 6.1064,0 10.9916,1.6053 14.4676,4.7214 z"
         fill="#ffffff"
         id="path4" />
      <path
         d="M 4.70152,33.0142 C 12.1232,29.0482 18.0418,24.1379 22.2694,18.2833 L 22.4573,18 h 5.5428 V 84.1001 H 15.8811 V 38.7743 L 3.0105,45.8565 V 33.7696 Z"
         fill="#ffffff"
         id="path6" />
      <path
         d="m 79,40 h -4 v 8 h -8 v 4 h 8 v 8 h 4 v -8 h 8 v -4 h -8 z"
         fill="#ffffff"
         id="path8" />
    </g>
    <g
       clip-path="url(#clip1_710_1225)"
       id="g30"
       transform="matrix(0.99996482,0,0,0.99996482,-0.74123094,0)">
      <rect
         x="103"
         width="100"
         height="100"
         rx="3"
         fill="#000000"
         fill-opacity="0.4"
         id="rect12"
         y="0" />
      <path
         fill-rule="evenodd"
         clip-rule="evenodd"
         d="m 105,63 h 96 v 33 c 0,1.1046 -0.895,2 -2,2 h -92 c -1.105,0 -2,-0.8954 -2,-2 z"
         fill="#ffffff"
         id="path14" />
      <path
         d="m 124.369,13.9786 0.092,-0.4618 c 0.085,-0.4312 0.253,-0.8412 0.494,-1.2063 0.241,-0.3652 0.551,-0.6784 0.912,-0.9217 0.361,-0.2433 0.765,-0.4119 1.19,-0.4962 0.425,-0.0843 0.862,-0.0825 1.287,0.0052 l 35.066,7.204 c 0.856,0.1764 1.607,0.6904 2.09,1.4294 0.483,0.7391 0.656,1.6424 0.483,2.5116 l -0.086,0.4326 z"
         fill="#ffffff"
         id="path16" />
      <path
         fill-rule="evenodd"
         clip-rule="evenodd"
         d="m 122.719,22.2355 -3.016,15.0958 c -0.172,0.8696 0.002,1.7731 0.484,2.5125 0.483,0.7393 1.235,1.2538 2.091,1.4304 l 35.066,7.2021 c 0.424,0.0875 0.861,0.0892 1.286,0.0053 0.424,-0.0841 0.828,-0.2522 1.189,-0.4948 0.361,-0.2426 0.67,-0.555 0.912,-0.9194 0.242,-0.3642 0.41,-0.7734 0.496,-1.2039 l 1.416,-7.092 -0.476,-0.6766 -2.791,-3.2378 -6.649,-2.1665 -5.016,-2.6527 -0.341,-2.7254 z m 26.474,20.1529 1.025,-5.0468 c 0.037,-0.1813 0.144,-0.3405 0.298,-0.4428 0.154,-0.1024 0.342,-0.1394 0.524,-0.1032 l 7.299,1.4803 c 0.09,0.018 0.176,0.0536 0.252,0.1047 0.076,0.0511 0.141,0.1167 0.191,0.1932 0.051,0.0764 0.086,0.162 0.103,0.252 0.017,0.09 0.017,0.1825 -0.002,0.2722 l -1.023,5.0468 c -0.037,0.1813 -0.144,0.3407 -0.298,0.443 -0.154,0.1022 -0.342,0.1394 -0.524,0.1031 l -7.299,-1.4803 c -0.182,-0.037 -0.341,-0.1442 -0.443,-0.2983 -0.102,-0.154 -0.139,-0.3425 -0.103,-0.5239 z"
         fill="#ffffff"
         id="path18" />
      <path
         d="m 163.765,40.3648 -0.634,3.1295 4.157,5.3247 1.911,-0.0884 1.496,-1.6898 -4.142,-2.718 z"
         fill="#ffffff"
         id="path20" />
      <path
         d="m 201,32.5 -8.09,-2.3621 -13.6,-13.914 -14.38,-1.6635 -6.92,0.9344 6.222,1.2613 c 1.1,0.2232 2.067,0.874 2.687,1.8096 0.62,0.9356 0.844,2.0793 0.621,3.1795 l -1.19,5.8706 7.406,2.7093 -0.593,1.6211 -18.524,-6.7761 -5.857,-0.4781 0.531,4.2401 4.09,2.1632 6.966,2.2698 3.161,3.6669 4.245,6.028 8.125,5.3317 13.281,0.0299 11.819,4.1713 z"
         fill="#ffffff"
         id="path22" />
      <path
         d="m 166.103,50.1055 -3.424,-4.3844 -0.184,0.9094 c -0.125,0.669 -0.663,2.1431 -1.811,2.6882 -0.27,0.1793 -0.56,0.3265 -0.863,0.4391 l 3.375,2.8669 3.24,-1.0451 z"
         fill="#ffffff"
         id="path24" />
      <path
         id="path2"
         style="font-weight:500;font-size:16.8836px;font-family:SrcWagon;-inkscape-font-specification:'SrcWagon Medium';text-align:center;text-anchor:middle;fill:#111d40;stroke-width:0.395711"
         inkscape:label="path2"
         d="m 128.04937,32.482461 -1.0439,0.437365 c 0.22511,0.303905 0.45268,0.664573 0.68905,1.081035 0.24763,0.416462 0.45833,0.792875 0.62717,1.130547 l 1.06453,-0.453869 c -0.1013,-0.191348 -0.2344,-0.423045 -0.39198,-0.693183 -0.15758,-0.270138 -0.31804,-0.542701 -0.48688,-0.812839 -0.16883,-0.270138 -0.32292,-0.497708 -0.45799,-0.689056 z m 41.21546,0.01651 v 2.71909 h -5.74351 v 12.188456 h 1.50602 v -10.71957 h 4.22099 c -0.0225,0.517764 -0.0937,1.054639 -0.20631,1.617426 -0.1013,0.562786 -0.29213,1.128908 -0.57352,1.691695 -0.27014,0.551531 -0.6623,1.088406 -1.18006,1.617425 -0.51776,0.529019 -1.19824,1.013408 -2.04242,1.452382 0.18009,0.135069 0.37617,0.320652 0.59003,0.557022 0.22512,0.225114 0.38446,0.415945 0.4745,0.573526 1.00176,-0.585298 1.80071,-1.2249 2.39726,-1.922756 0.59656,-0.697856 1.05057,-1.413942 1.36573,-2.145565 0.45023,0.438974 0.89376,0.891871 1.33273,1.353356 0.45023,0.45023 0.8675,0.888504 1.2502,1.316222 0.3827,0.427718 0.69725,0.809379 0.94488,1.147051 l 1.2337,-0.994386 c -0.30391,-0.382695 -0.69607,-0.825096 -1.18006,-1.320348 -0.484,-0.495252 -1.00401,-1.000635 -1.55554,-1.518399 -0.54027,-0.517763 -1.05615,-0.996904 -1.55141,-1.435878 0.0788,-0.348927 0.13544,-0.689723 0.16917,-1.027395 0.045,-0.337672 0.0713,-0.657473 0.0825,-0.961378 h 4.287 v 8.829823 c 0,0.135067 -0.0315,0.22842 -0.099,0.2847 -0.0563,0.05628 -0.159,0.0919 -0.30533,0.103152 -0.15758,0.01125 -0.47738,0.0165 -0.96138,0.0165 -0.47274,-0.01125 -0.97287,-0.027 -1.50189,-0.04951 0.10131,0.202603 0.1999,0.450046 0.3012,0.742696 0.11259,0.303904 0.18908,0.561845 0.22281,0.775704 0.70911,0 1.30785,-0.0105 1.8031,-0.03301 0.50651,-0.02251 0.91329,-0.104244 1.2172,-0.239313 0.3039,-0.112557 0.51048,-0.29814 0.62303,-0.557022 0.12382,-0.247626 0.18568,-0.588421 0.18568,-1.027395 V 35.218056 h -5.75589 v -2.71909 z m -43.0722,0.656047 -1.0274,0.441491 c 0.21386,0.303905 0.43619,0.67507 0.67255,1.114043 0.23638,0.427718 0.44183,0.80938 0.61066,1.147052 l 1.06041,-0.4745 c -0.1013,-0.213858 -0.23027,-0.456053 -0.38785,-0.726191 -0.14633,-0.281393 -0.30154,-0.549831 -0.47038,-0.808713 -0.15758,-0.270138 -0.31167,-0.501835 -0.45799,-0.693182 z m -7.62914,0.288826 c -0.0113,0.236371 -0.0416,0.483813 -0.0866,0.742695 -0.045,0.247626 -0.10688,0.489821 -0.18568,0.726192 -0.1013,0.303904 -0.23027,0.659324 -0.38785,1.06453 -0.14633,0.39395 -0.33191,0.78086 -0.55702,1.163556 -0.19135,0.337672 -0.43879,0.719333 -0.7427,1.147051 -0.29264,0.427718 -0.61769,0.844997 -0.97788,1.250204 -0.34892,0.405207 -0.72009,0.750128 -1.11404,1.031521 l 1.60092,0.977883 c 0.32641,-0.270138 0.65559,-0.595188 0.98201,-0.977883 0.32641,-0.39395 0.63047,-0.800732 0.91186,-1.217195 0.29266,-0.427717 0.55059,-0.844997 0.77571,-1.250204 h 3.83313 c -0.0788,1.260642 -0.29474,2.347893 -0.64367,3.259608 -0.33767,0.911715 -0.75495,1.675038 -1.2502,2.294103 -0.49526,0.619066 -1.01639,1.139072 -1.56791,1.555534 -0.39396,0.337672 -0.86784,0.60611 -1.41938,0.808713 l 1.74121,1.167682 c 1.42947,-0.900458 2.56397,-2.079939 3.40815,-3.531929 0.84418,-1.463246 1.33906,-3.31382 1.48539,-5.553711 h 2.53341 c 0.1801,0 0.42229,0.0053 0.72619,0.0165 0.30391,0 0.59222,0.01462 0.86236,0.03713 v -1.757713 c -0.23638,0.04503 -0.51419,0.07127 -0.82935,0.08252 -0.3039,0.01125 -0.5566,0.02063 -0.7592,0.02063 h -7.36093 c 0.1013,-0.258882 0.19878,-0.515699 0.28882,-0.763325 0.09,-0.247626 0.16766,-0.469949 0.23519,-0.672552 0.0675,-0.180092 0.14514,-0.380298 0.23519,-0.594157 0.09,-0.225114 0.16765,-0.43694 0.23518,-0.639543 z m 33.8009,0.08252 c -0.0225,0.23637 -0.0582,0.483813 -0.10316,0.742695 -0.045,0.247626 -0.12788,0.566305 -0.25169,0.949 -0.0788,0.326416 -0.20251,0.76469 -0.37135,1.316221 -0.16884,0.551531 -0.36904,1.159642 -0.59415,1.82373 -0.21386,0.664088 -0.43094,1.344556 -0.65605,2.042412 -0.22511,0.697855 -0.45156,1.362578 -0.67668,1.992899 -0.21386,0.619066 -0.41518,1.165315 -0.60653,1.638056 -0.11256,0.01125 -0.22578,0.0165 -0.33834,0.0165 -0.11255,0 -0.22054,0.0053 -0.32184,0.01651 -0.23637,0.01125 -0.5048,0.0165 -0.80871,0.0165 h -0.80871 l 0.2847,1.889747 0.74269,-0.09903 c 0.25888,-0.04502 0.49058,-0.08064 0.69319,-0.103152 0.41646,-0.03377 0.93759,-0.08513 1.56791,-0.152665 0.64158,-0.06753 1.33142,-0.134644 2.06304,-0.202178 0.74288,-0.07879 1.49571,-0.161646 2.2611,-0.251692 0.76539,-0.09005 1.49197,-0.171778 2.17857,-0.239312 0.6866,-0.07879 1.28947,-0.151149 1.80723,-0.218683 0.16884,0.371439 0.3188,0.732107 0.45386,1.081034 0.14633,0.348928 0.2753,0.663481 0.38786,0.944874 l 1.7082,-0.775704 c -0.16884,-0.438973 -0.40054,-0.944357 -0.69319,-1.5184 -0.28139,-0.585298 -0.59069,-1.193408 -0.92837,-1.823729 -0.32641,-0.630321 -0.66609,-1.233183 -1.01501,-1.807226 -0.33768,-0.585298 -0.64698,-1.090681 -0.92837,-1.518399 l -1.56791,0.689056 c 0.28139,0.360184 0.58544,0.823578 0.91186,1.386365 0.32641,0.562787 0.63572,1.155151 0.92837,1.774217 -0.56279,0.07879 -1.22751,0.161645 -1.9929,0.251691 -0.76539,0.07879 -1.55383,0.161645 -2.36425,0.251691 -0.81041,0.07879 -1.5831,0.155274 -2.31473,0.222809 0.15758,-0.427718 0.33791,-0.937228 0.54052,-1.522526 0.21386,-0.596554 0.42981,-1.215162 0.64367,-1.856738 0.21386,-0.652833 0.42043,-1.292435 0.62304,-1.922756 0.21386,-0.641577 0.39944,-1.223444 0.55702,-1.741208 0.16883,-0.517763 0.30305,-0.925669 0.40435,-1.229574 0.12382,-0.348928 0.23704,-0.652982 0.33834,-0.911864 0.1013,-0.270138 0.19878,-0.512332 0.28883,-0.726191 z m -20.7831,5.335028 v 2.009404 c 0.2814,-0.02251 0.63794,-0.03826 1.07691,-0.04951 0.45024,-0.02251 0.89788,-0.03301 1.33685,-0.03301 h 8.82983 c 0.34892,0 0.68972,0.01049 1.02739,0.03301 0.34893,0.02251 0.61099,0.03826 0.77983,0.04951 v -2.009404 c -0.2026,0.01125 -0.46467,0.03638 -0.77983,0.07014 -0.3039,0.02251 -0.6447,0.03301 -1.02739,0.03301 h -8.82983 c -0.42772,0 -0.87536,-0.01049 -1.33685,-0.03301 -0.45022,-0.03377 -0.80677,-0.05889 -1.07691,-0.07014 z m 6.70902,10.7402 v 1.316222 h -1.85674 v 1.114043 h 1.85674 v 0.796334 h -1.45238 v 1.06453 h 1.45238 v 0.858226 h -2.17857 v 1.114043 h 3.86614 v 0.796334 h -2.97078 v 4.101329 h -0.96138 v 1.097539 h 0.96138 v 2.632442 h 1.33272 v -2.632442 h 4.69549 v 1.147052 c 0,0.09497 -0.0157,0.162438 -0.0454,0.198052 l -0.004,0.0041 c -0.0338,0.03377 -0.11025,0.05364 -0.2228,0.05364 -0.11256,0.01125 -0.32964,0.0165 -0.65605,0.0165 -0.32642,-0.01126 -0.67659,-0.02588 -1.04803,-0.03713 0.0788,0.180092 0.1564,0.385546 0.23519,0.610661 0.09,0.23637 0.14664,0.437699 0.16917,0.606535 0.56279,0 1.03668,-0.0053 1.41937,-0.0165 0.3827,-0.01126 0.692,-0.07312 0.92837,-0.185674 0.23637,-0.112557 0.39571,-0.266648 0.4745,-0.457995 0.0901,-0.180092 0.13204,-0.438032 0.13204,-0.775704 v -1.163556 h 0.86235 V 60.76265 h -0.86235 v -4.101329 h -3.10282 v -0.796334 h 3.93216 v -1.114043 h -2.19508 v -0.858226 h 1.60505 v -1.06453 h -1.60505 v -0.796334 h 1.85674 v -1.114043 h -1.85674 v -1.316222 h -1.34923 v 1.316222 h -2.07955 v -1.316222 z m 13.25298,0.235187 -0.94487,1.283213 c 0.52902,0.371439 1.00291,0.772973 1.41937,1.200691 0.41646,0.427718 0.79813,0.891112 1.14706,1.386364 -0.49526,2.21738 -1.26796,4.119318 -2.31474,5.706376 -1.03552,1.575803 -2.44258,2.813018 -4.22098,3.713477 0.13506,0.07879 0.2944,0.197263 0.4745,0.354843 0.18009,0.157581 0.35518,0.312794 0.52401,0.470374 0.16884,0.157581 0.29781,0.295925 0.38785,0.408483 1.5533,-0.922971 2.84712,-2.097203 3.88265,-3.515425 1.03552,-1.429478 1.86483,-3.140585 2.4839,-5.13285 0.42772,0.776646 0.84087,1.570338 1.24608,2.380751 0.40521,0.810413 0.84236,1.598857 1.30384,2.364247 0.47275,0.754134 1.02424,1.47022 1.65456,2.145564 0.64158,0.664089 1.3944,1.24183 2.2611,1.737082 0.0338,-0.168836 0.0904,-0.359667 0.16917,-0.573526 0.09,-0.202603 0.18339,-0.409179 0.2847,-0.623039 0.1013,-0.213858 0.19878,-0.388944 0.28882,-0.524012 -0.87794,-0.540276 -1.62552,-1.143138 -2.24459,-1.807226 -0.6078,-0.664089 -1.13831,-1.365551 -1.58854,-2.108429 -0.45023,-0.754135 -0.87276,-1.521585 -1.26671,-2.29823 -0.39395,-0.776645 -0.81122,-1.545218 -1.2502,-2.310608 -0.42772,-0.776646 -0.93835,-1.52835 -1.53491,-2.248716 -0.5853,-0.720368 -1.30663,-1.390339 -2.16207,-2.009404 z m -20.42824,0.354843 V 60.40781 h 4.71199 V 50.191619 Z m 1.31622,1.2337 h 2.04241 v 1.807225 h -2.04241 z m 7.19176,0.606535 h 2.07955 v 0.796334 h -2.07955 z m 0,1.860864 h 2.07955 v 0.858226 h -2.07955 z m -7.19176,0.486878 h 2.04241 v 1.840234 h -2.04241 z m 0,2.970782 h 2.04241 v 1.840234 h -2.04241 z m 5.90855,0.424986 h 1.63806 v 0.944874 h -1.63806 z m 2.97491,0 h 1.72058 v 0.944874 h -1.72058 z m -2.97491,1.93926 h 1.63806 v 1.048026 h -1.63806 z m 2.97491,0 h 1.72058 v 1.048026 h -1.72058 z m -6.31704,0.92837 -1.13054,0.491004 c 0.24762,0.39395 0.49506,0.842722 0.74269,1.34923 0.25888,0.495252 0.44446,0.91778 0.55702,1.266708 l 1.18006,-0.557022 c -0.12381,-0.348927 -0.31464,-0.760958 -0.57352,-1.233699 -0.25889,-0.483996 -0.51683,-0.922271 -0.77571,-1.316221 z m -3.09044,0.0165 c -0.14632,0.585298 -0.36339,1.15142 -0.65604,1.691695 -0.2814,0.540275 -0.61057,0.994295 -0.98201,1.365734 0.14633,0.09005 0.34128,0.213768 0.57765,0.371348 0.24762,0.15758 0.43321,0.291799 0.55702,0.404356 0.37144,-0.427717 0.71748,-0.948847 1.0439,-1.567912 0.32642,-0.630322 0.59373,-1.279298 0.79634,-1.943386 z"
         transform="matrix(0.90584273,0,0,0.90584273,21.033153,35.953825)" />
    </g>
  </g>
</svg>
