<?xml version="1.0" encoding="UTF-8" standalone="no"?>
<svg
   width="440"
   height="77"
   viewBox="0 0 440 77"
   fill="none"
   version="1.1"
   id="svg26"
   sodipodi:docname="game_logo_static.svg"
   inkscape:version="1.4.2 (f4327f4, 2025-05-13)"
   xmlns:inkscape="http://www.inkscape.org/namespaces/inkscape"
   xmlns:sodipodi="http://sodipodi.sourceforge.net/DTD/sodipodi-0.dtd"
   xmlns="http://www.w3.org/2000/svg"
   xmlns:svg="http://www.w3.org/2000/svg">
  <defs
     id="defs30" />
  <sodipodi:namedview
     id="namedview28"
     pagecolor="#00ffff"
     bordercolor="#000000"
     borderopacity="0.25"
     inkscape:showpageshadow="2"
     inkscape:pageopacity="0"
     inkscape:pagecheckerboard="0"
     inkscape:deskcolor="#d1d1d1"
     showgrid="false"
     inkscape:zoom="1.4142136"
     inkscape:cx="211.77848"
     inkscape:cy="73.185552"
     inkscape:window-width="2560"
     inkscape:window-height="1494"
     inkscape:window-x="-11"
     inkscape:window-y="-11"
     inkscape:window-maximized="1"
     inkscape:current-layer="svg26" />
  <path
     id="text1"
     style="font-size:116.077px;font-family:SoukouMincho;-inkscape-font-specification:SoukouMincho;fill:#ffffff;stroke-width:1.89465"
     d="m 157.52176,0.505858 c -0.16169,0 -0.51251,0.24267278 -1.05143,0.7277007 -0.53893,0.4311352 -1.13106,0.9428413 -1.77777,1.5356531 -0.5928,0.5928107 -1.18632,1.1863144 -1.77912,1.7791261 l -1.05007,1.0500652 -0.56584,0.2421137 h -43.33016 c -0.21557,0 -0.32236,0.081801 -0.32236,0.2434741 0,0.5389189 0.26904,0.8079513 0.80795,0.8079513 h 43.24855 c 0.48503,0 0.78178,0.2426738 0.88956,0.7277008 0.10779,0.485028 0.10779,1.0244521 0,1.6172638 -0.054,0.5928117 -0.16205,1.2126742 -0.32372,1.8593772 -0.10779,0.592812 -0.18823,0.99636 -0.24212,1.211928 -0.054,0.215568 -0.0816,0.458241 -0.0816,0.727701 0,0.215567 -0.054,0.430521 -0.16186,0.646089 -0.10778,0.323352 -0.37681,0.485587 -0.80795,0.485587 -0.10778,0 -0.32274,-0.08044 -0.64609,-0.242113 -0.26946,-0.215568 -0.56621,-0.431882 -0.88957,-0.647449 -0.32335,-0.215568 -0.6201,-0.430522 -0.88955,-0.646091 -0.26947,-0.215567 -0.4317,-0.377802 -0.4856,-0.485586 l -0.48423,-0.161863 -0.48557,0.243474 -1.29355,1.615903 c -0.37725,0.53892 -0.7808,1.078344 -1.21193,1.617265 -0.75449,1.023948 -1.34799,1.804684 -1.77912,2.343604 -0.43113,0.538919 -0.88877,0.943828 -1.37379,1.213287 -0.48503,0.215568 -1.07718,0.350082 -1.77777,0.403978 -0.64671,0.0539 -1.61739,0.107972 -2.91081,0.16186 l -0.2421,0.242117 0.2421,0.242109 h 2.26335 c 1.07785,0 2.31758,0.02771 3.71877,0.08161 h 4.36485 4.20433 c 1.2934,0 2.39726,-0.02771 3.31342,-0.08161 0.91616,-0.0539 1.42923,-0.106607 1.53701,-0.160496 l 0.1605,-0.32373 c -0.054,-0.107784 -0.21476,-0.296377 -0.48422,-0.565838 -0.26945,-0.323351 -0.56621,-0.646462 -0.88956,-0.969813 -0.26947,-0.323352 -0.56621,-0.620103 -0.88957,-0.889564 -0.26946,-0.26946 -0.48441,-0.485773 -0.64609,-0.647449 l -0.16187,-0.484227 c 0.1078,-0.592813 0.83581,-1.212675 2.18311,-1.859378 1.40119,-0.700595 2.88224,-1.374535 4.44509,-2.021239 1.61677,-0.700596 3.07281,-1.346817 4.36621,-1.939629 1.29341,-0.6467033 1.93963,-1.1861283 1.93963,-1.6172634 0,-0.1616757 -0.43127,-0.6733819 -1.29354,-1.535653 -0.80839,-0.8622712 -1.72363,-1.7788858 -2.74758,-2.7489408 -1.02395,-0.9700549 -1.99464,-1.83259 -2.91081,-2.5870783 -0.91615,-0.80837936 -1.48194,-1.2119275 -1.6975,-1.2119275 z m 27.39826,0.13601832 c -0.13136,0.003304 -0.23744,0.0123672 -0.31828,0.0258468 -0.054,0 -0.10661,0.026356 -0.1605,0.0802459 h -0.16187 l -0.32371,0.48558783 v 9.7008622 c 0,0.646704 -0.3772,0.861658 -1.13169,0.64609 -0.70059,-0.215567 -1.50905,-0.4846 -2.42521,-0.807951 -0.86228,-0.377244 -1.67073,-0.673997 -2.42521,-0.8895631 -0.7006,-0.2155685 -1.05143,-6.147e-4 -1.05143,0.6460891 v 23.848183 c 0,0.485033 -0.24131,0.754066 -0.72634,0.807954 -0.43114,0.0539 -0.94421,0.0539 -1.53702,0 -0.53892,-0.0539 -1.05063,-0.0539 -1.53565,0 -0.43113,0.0539 -0.64608,0.322921 -0.64608,0.807947 0,0.323353 0.0263,0.970937 0.0803,1.940989 0.054,0.97006 0.13434,1.967112 0.24212,2.991054 0.16168,0.970059 0.35027,1.858951 0.56583,2.66733 0.21558,0.80838 0.45825,1.211933 0.72771,1.211933 0.32335,0 0.64782,-0.08045 0.97117,-0.242117 0.37724,-0.161673 0.70036,-0.242116 0.96981,-0.242116 0.26946,-0.0539 0.48442,0.02654 0.6461,0.242116 0.16167,0.215561 0.24211,0.727268 0.24211,1.535654 0,3.39519 -0.13452,6.791258 -0.40399,10.186448 -0.21556,3.395189 -0.6191,6.789893 -1.21191,10.18509 -0.21557,1.18562 -0.62049,2.505782 -1.21329,3.960868 -0.59281,1.455086 -0.8882,2.721164 -0.8882,3.799008 0,0.431137 0.16087,0.647451 0.48422,0.647451 l 0.7277,-0.485591 c 0.43113,-0.323352 0.80832,-0.700545 1.13168,-1.131675 0.37724,-0.377243 0.72807,-0.780788 1.05142,-1.211925 1.13174,-1.455086 2.10107,-3.017921 2.90945,-4.688575 0.80837,-1.670648 1.48231,-3.39572 2.02123,-5.174151 0.53893,-1.778439 0.9702,-3.583948 1.29354,-5.416275 0.32335,-1.886216 0.6201,-3.718083 0.88956,-5.496522 0.10779,-0.862268 0.18823,-1.724801 0.24213,-2.587076 0.10777,-0.862268 0.21593,-1.724807 0.32371,-2.587075 0.054,-0.323353 0.054,-0.646462 0,-0.969815 0,-0.323354 0.0542,-0.646464 0.16187,-0.969817 0,-0.215568 0.0804,-0.404165 0.24211,-0.565838 0.26946,-0.161672 0.51213,-0.161672 0.7277,0 0.26946,0.161673 0.40398,0.376629 0.40398,0.646094 v 16.248809 c 0,0.269457 0.16087,0.458046 0.48423,0.565837 0.37724,0.0539 0.78215,0.0539 1.21328,0 0.48502,-0.107791 0.88858,-0.242303 1.21193,-0.403977 0.37725,-0.161679 0.56583,-0.376629 0.56583,-0.646092 l 0.56579,-16.168555 c 0,-0.377242 -0.21494,-0.646274 -0.64608,-0.807954 -0.43113,-0.161673 -0.94285,-0.296193 -1.53565,-0.403978 -0.53892,-0.107785 -1.05063,-0.215938 -1.53566,-0.323722 -0.43114,-0.161673 -0.64744,-0.45843 -0.64744,-0.88956 0,-0.215569 0.3231,-0.510961 0.9698,-0.88821 0.64671,-0.431137 1.37473,-0.836041 2.18311,-1.213283 0.86226,-0.431137 1.67072,-0.781963 2.42522,-1.051428 0.80837,-0.269457 1.3478,-0.376254 1.61726,-0.322365 l 0.40398,0.403978 c 0,0.808379 -0.10816,1.589118 -0.32373,2.343601 -0.16167,0.754491 -0.24211,1.536587 -0.24211,2.344967 v 22.715146 c 0,0.0539 -0.0277,0.107966 -0.0816,0.161861 v 0.161862 c -0.21557,0.592817 -0.45825,1.02408 -0.7277,1.293538 -0.21557,0.215569 -0.4846,0.376448 -0.80796,0.484232 -0.26945,0.0539 -0.62029,0.0539 -1.05143,0 -0.37723,-0.0539 -0.80715,-0.08025 -1.29217,-0.08025 -0.75449,0 -1.10533,0.134521 -1.05143,0.403978 0.054,0.269465 0.18841,0.620291 0.40398,1.051428 0.48503,0.592804 0.86222,1.130869 1.13168,1.615902 0.32334,0.485027 0.56603,0.970373 0.7277,1.455399 0.21556,0.485027 0.3778,0.996732 0.48559,1.535655 0.16167,0.592809 0.35027,1.240393 0.56583,1.940988 0.054,0.161674 0.10797,0.322546 0.16187,0.484226 0.10777,0.161681 0.26865,0.243474 0.48423,0.243474 0.054,0 0.10797,-0.02771 0.16186,-0.08161 h 0.16186 c 1.02395,-0.215569 2.04736,-0.512319 3.07131,-0.889561 1.02394,-0.377241 1.94056,-0.888948 2.74894,-1.535654 0.80837,-0.59281 1.45459,-1.319472 1.93962,-2.18174 0.53892,-0.862268 0.80931,-1.941121 0.80931,-3.234526 V 35.508946 c 0,-0.161673 0.0805,-0.377995 0.24212,-0.647452 0.21557,-0.269465 0.37644,-0.458055 0.48423,-0.565839 v -0.403977 c -0.10779,-0.0539 -0.21458,-0.134325 -0.32237,-0.242109 -0.10778,-0.107784 -0.16186,-0.215937 -0.16186,-0.323729 V 16.269081 c 0,-0.323352 0.16087,-0.592383 0.48423,-0.807952 0.32335,-0.215567 0.53966,-0.51232 0.64744,-0.889563 0.054,-0.323352 -0.18878,-0.754621 -0.7277,-1.293539 -0.48503,-0.592812 -1.07717,-1.158596 -1.77777,-1.697516 -0.70059,-0.53892 -1.40225,-1.024265 -2.10285,-1.455401 -0.70058,-0.4311355 -1.2123,-0.6738093 -1.53565,-0.7277011 l -0.56584,0.1618623 c -0.91616,0.9161628 -1.61646,1.6178238 -2.10149,2.1028518 -0.43113,0.485027 -0.8624,0.834497 -1.29353,1.050065 -0.43114,0.215567 -0.99692,0.350084 -1.69752,0.403976 h -2.99106 l -0.56583,-0.242114 -0.16187,-0.161862 -0.16185,-0.484227 0.16185,-0.485587 c 0.32336,-0.377244 0.94322,-0.970747 1.85939,-1.7791267 0.97004,-0.8622711 1.94074,-1.723447 2.9108,-2.5857172 1.02395,-0.9161641 1.91283,-1.7786991 2.66733,-2.5870784 0.80837,-0.8083793 1.21193,-1.374164 1.21193,-1.6975153 0,-0.3772442 -0.48535,-0.7280741 -1.4554,-1.0514263 -0.91618,-0.3233514 -1.96594,-0.5923829 -3.15156,-0.8079514 -1.18563,-0.2155675 -2.34491,-0.37780309 -3.47664,-0.48558783 -0.8488,-0.0808393 -1.47074,-0.11619856 -1.86483,-0.10609455 z m 208.72906,0.0258468 c -0.5928,0.21556849 -1.07816,0.61911663 -1.4554,1.21192743 -0.37724,0.5928127 -0.78077,1.212674 -1.21193,1.8593776 -0.37725,0.5928118 -0.78215,1.1322369 -1.21328,1.6172647 -0.43113,0.4850271 -0.9692,0.7277008 -1.61591,0.7277008 h -31.20408 c -1.02393,0 -2.15552,-0.216315 -3.39504,-0.6474501 -1.2395,-0.485028 -2.45151,-0.9967332 -3.63713,-1.535653 -1.13173,-0.5389199 -2.15651,-1.0242655 -3.07267,-1.4554016 -0.86226,-0.485027 -1.42805,-0.7277007 -1.69751,-0.7277007 -0.26946,0 -0.45806,0.108157 -0.56584,0.3237246 -0.0539,0.1616766 -0.0802,0.3502709 -0.0802,0.5658385 0,5.8742234 0.0804,11.7220177 0.24212,17.5423487 0.21556,5.76644 0.32372,11.586516 0.32372,17.46074 0,0.485026 0.1886,0.75406 0.56584,0.807948 h 1.05008 c 0.97005,0 1.88667,-0.188597 2.74893,-0.565838 0.91616,-0.431138 1.7787,-0.88876 2.58708,-1.373786 0.86228,-0.485034 1.72481,-0.916296 2.58708,-1.293538 0.91617,-0.431137 1.85913,-0.646094 2.82919,-0.646094 0.21556,0 0.45824,0.05273 0.7277,0.160504 0.26946,0.0539 0.40397,0.216126 0.40397,0.48559 0,0.916157 -0.4049,1.939568 -1.21329,3.071301 -0.80837,1.131732 -1.85814,2.291021 -3.15155,3.476643 -1.23951,1.131733 -2.64147,2.291022 -4.20435,3.476643 -1.56286,1.131732 -3.12571,2.209221 -4.68856,3.233163 -1.50897,0.970058 -2.93729,1.858957 -4.28459,2.667329 -1.3473,0.754491 -2.39844,1.347991 -3.15292,1.779128 0.16168,0.107785 0.29755,0.160504 0.40534,0.160504 h 0.56583 c 1.3473,0 2.69383,-0.241316 4.04112,-0.726342 1.3473,-0.538922 2.66747,-1.106062 3.96087,-1.698873 1.29341,-0.592817 2.56084,-1.130883 3.80037,-1.615909 1.23951,-0.538914 2.45153,-0.807947 3.63714,-0.807947 0.53892,0 0.80796,0.269033 0.80796,0.807947 0,2.586818 -0.0542,4.795871 -0.16187,6.6282 -0.054,1.778438 -0.24248,3.341273 -0.56584,4.688567 -0.26946,1.347302 -0.67301,2.560668 -1.21192,3.638505 -0.53893,1.023947 -1.29331,2.047359 -2.26336,3.071308 -0.97006,0.970058 -2.1557,2.021181 -3.55689,3.152914 -1.4012,1.131732 -3.09854,2.451901 -5.09254,3.960867 -0.10779,0.107792 -0.27002,0.242305 -0.48559,0.403978 -0.21558,0.215568 -0.32372,0.404165 -0.32372,0.565838 0,0.269457 0.16223,0.403977 0.48557,0.403977 h 0.80797 c 1.45507,0 3.04561,-0.188597 4.77018,-0.565839 1.77842,-0.377241 3.31354,-0.888947 4.60694,-1.535654 2.58683,-1.293405 4.74317,-2.828522 6.4677,-4.606953 1.72454,-1.832328 3.12515,-3.826433 4.20299,-5.982113 1.07783,-2.20957 1.85993,-4.554502 2.34496,-7.033535 0.53892,-2.532922 0.86203,-5.173246 0.96983,-7.921736 l 0.2421,-0.565839 c 0.91616,-0.754483 1.23928,-1.26619 0.96981,-1.535647 -0.21556,-0.269458 -0.6732,-0.431694 -1.37378,-0.48559 -0.6467,-0.107785 -1.32065,-0.215938 -2.02125,-0.323723 -0.70058,-0.107784 -1.05007,-0.403176 -1.05007,-0.888202 0,-0.377249 0.10681,-0.647639 0.32237,-0.809312 0.26946,-0.21557 0.53985,-0.404166 0.80931,-0.565838 1.61676,-1.077845 3.0451,-2.317563 4.2846,-3.71876 1.2934,-1.401189 2.63992,-2.775436 4.04111,-4.122729 l 0.56585,-0.24211 h 1.05143 l 1.6159,-0.161868 c 0.53892,-0.107777 1.02427,-0.242296 1.45539,-0.40397 0.43115,-0.161679 0.70153,-0.350269 0.80931,-0.565838 -0.10778,-0.107791 -0.18957,-0.242304 -0.24346,-0.403978 -0.054,-0.16168 -0.10799,-0.296192 -0.16187,-0.403977 V 7.9433685 c 0,-0.5389198 0.27039,-0.8093124 0.80932,-0.8093124 h 10.75092 c 0.53892,0 0.80796,0.2703926 0.80796,0.8093124 V 32.517893 c 0,0.485026 -0.43127,0.781775 -1.29354,0.88956 -0.80839,0.0539 -1.72364,0.08025 -2.74759,0.08025 -0.97005,-0.0539 -1.91302,-0.08025 -2.82919,-0.08025 -0.86227,-0.0539 -1.34761,0.05293 -1.4554,0.322365 0.37724,0.215568 0.8626,0.350087 1.4554,0.403976 0.64671,0.0539 1.32064,0.08161 2.02125,0.08161 h 2.01988 c 0.64671,-0.0539 1.18613,-0.08161 1.61725,-0.08161 0.43114,0 0.75426,0.188597 0.96982,0.565839 0.21557,0.323353 0.3778,0.701897 0.4856,1.133034 0.16166,0.377249 0.29618,0.726718 0.40397,1.050071 0.16168,0.323347 0.40434,0.485583 0.7277,0.485583 0.32334,0 0.96957,-0.02771 1.93963,-0.08161 1.02395,-0.107785 2.04736,-0.242298 3.07131,-0.403971 1.07783,-0.16168 2.02217,-0.376629 2.83054,-0.646094 0.86228,-0.269457 1.29218,-0.620291 1.29218,-1.051421 v -24.73639 c 0,-0.26946 0.13588,-0.512133 0.40533,-0.7277006 0.26947,-0.2155685 0.5385,-0.4305224 0.80796,-0.6460899 0.32335,-0.2155676 0.62011,-0.4041618 0.88955,-0.5658384 0.26948,-0.1616758 0.40399,-0.3239113 0.40399,-0.485587 0,-0.2155685 -0.43127,-0.7009151 -1.29354,-1.4554015 -0.80839,-0.7544874 -1.75136,-1.5352251 -2.8292,-2.3436043 -1.02394,-0.8622721 -2.04871,-1.64437 -3.07266,-2.3449655 -0.9701,-0.7005946 -1.61632,-1.10414371 -1.93968,-1.21192747 z M 286.21597,1.3954238 c -0.6467,0 -0.96982,0.2690324 -0.96982,0.8079523 V 55.556764 c 0,0.538915 0.26904,0.807947 0.80795,0.807947 0.43115,0 1.10507,-0.02632 2.02125,-0.08024 0.97006,-0.0539 1.93938,-0.162048 2.90943,-0.323723 0.97006,-0.161678 1.8326,-0.404352 2.58709,-0.727706 0.80837,-0.323345 1.266,-0.726898 1.37378,-1.211924 0.21558,-1.077837 0.35009,-2.15669 0.40398,-3.234527 0.10779,-1.077837 0.16186,-2.155333 0.16186,-3.233169 V 5.1944269 c 0,-0.2155675 0.10816,-0.4041618 0.32374,-0.5658384 l 0.64745,-0.4855869 c 0.26945,-0.1616758 0.51076,-0.3225511 0.72633,-0.4842268 0.26946,-0.1616757 0.43171,-0.3502709 0.48559,-0.5658384 L 297.29062,2.7692118 C 295.4583,2.4997514 293.62642,2.203 291.79409,1.8796478 289.96177,1.5562964 288.10218,1.395421 286.21597,1.395421 Z m -63.45823,0.080255 c -0.32335,0 -0.64646,0.2426728 -0.96981,0.7277008 -0.32337,0.4311351 -0.64647,0.9428413 -0.96982,1.535652 -0.32334,0.5389198 -0.67417,1.0506251 -1.05143,1.5356531 -0.37723,0.4850269 -0.75442,0.7554195 -1.13167,0.8093124 -0.53891,0.1077837 -1.13106,0.1618623 -1.77776,0.1618623 h -1.69752 c -2.04789,0 -3.80069,-0.2426737 -5.25577,-0.7277007 -1.45508,-0.5389199 -3.07063,-1.2128607 -4.84907,-2.0212399 -0.21557,-0.1077839 -0.40416,-0.1618633 -0.56584,-0.1618633 -0.26946,0 -0.45805,0.108157 -0.56583,0.3237255 -0.054,0.1616757 -0.0816,0.3502699 -0.0816,0.5658385 0,1.9401098 0.0804,3.8801349 0.24211,5.8202452 0.21557,1.886219 0.32373,3.799884 0.32373,5.739995 0,3.07184 -0.10816,6.143435 -0.32373,9.215279 -0.16167,3.017949 -0.24211,6.061818 -0.24211,9.133662 0,1.455086 0.0277,2.911118 0.0816,4.366204 0.10778,1.40119 0.21458,2.801788 0.32235,4.202985 v 1.131675 c 0,0.323354 0.0542,0.646463 0.16188,0.969817 0.10778,0.485026 0.29637,0.781775 0.56583,0.88956 0.32335,0.107785 0.64647,0.324098 0.96982,0.647451 0.26945,0.916164 0.35125,2.020012 0.24346,3.313417 -0.054,1.293406 -0.0816,2.424978 -0.0816,3.395031 0,2.209568 0.0278,4.419987 0.0816,6.629556 0.054,2.20957 0.13434,4.418624 0.24212,6.628199 0,0.269458 0.0264,0.78117 0.0803,1.535655 0.1078,0.700595 0.16186,1.454966 0.16186,2.263353 0,0.808379 -0.0541,1.51004 -0.16186,2.102849 -0.054,0.646707 -0.21476,0.969816 -0.48422,0.969816 -0.21556,0 -0.62048,-0.02771 -1.2133,-0.08161 h -1.77776 c -0.59281,0 -1.13223,0.05405 -1.61727,0.161862 -0.43112,0.107783 -0.64608,0.296373 -0.64608,0.565838 0.10779,0.107784 0.21458,0.161861 0.32237,0.161861 h 47.85686 c 0.16167,0 0.37663,-0.08044 0.64608,-0.242109 0.26946,-0.16168 0.40398,-0.323918 0.40398,-0.48559 0,-0.161681 -0.18859,-0.511149 -0.56583,-1.050065 -0.37725,-0.538921 -0.80716,-1.10471 -1.29219,-1.697514 -0.43113,-0.538923 -0.86239,-1.024269 -1.29353,-1.455406 -0.43114,-0.485026 -0.72788,-0.727699 -0.88957,-0.727699 -0.26945,0 -0.53848,0.188603 -0.80795,0.565837 -0.26946,0.323361 -0.51213,0.566028 -0.72769,0.727701 l -0.40398,0.08025 -0.32372,-0.242116 -0.4856,-0.88956 V 51.918257 c 0,-0.269457 0.13451,-0.484413 0.40399,-0.646093 0.26945,-0.215569 0.53984,-0.404159 0.80931,-0.565839 0.32334,-0.161673 0.61874,-0.32391 0.88819,-0.485583 0.26947,-0.161673 0.40534,-0.322545 0.40534,-0.484225 0,-0.377242 -0.35082,-0.888948 -1.05143,-1.535654 -0.6467,-0.700595 -1.4288,-1.374538 -2.34495,-2.021245 -0.86229,-0.646706 -1.75118,-1.212488 -2.66735,-1.697515 -0.86226,-0.485026 -1.48212,-0.727698 -1.85936,-0.727698 -0.53892,0 -0.97019,0.269032 -1.29354,0.807954 -0.32335,0.485026 -0.64648,1.050815 -0.96981,1.697515 -0.32336,0.592811 -0.67284,1.158593 -1.05007,1.697515 -0.37725,0.485026 -0.89031,0.727699 -1.53702,0.727699 h -16.65142 c -0.32335,0 -0.8905,-0.10816 -1.69888,-0.323722 -0.75449,-0.215569 -1.53523,-0.484602 -2.3436,-0.807955 -0.80839,-0.323353 -1.5364,-0.67418 -2.18311,-1.051422 -0.59281,-0.377241 -0.8882,-0.72671 -0.8882,-1.05007 0,-0.161673 0.0804,-0.484789 0.24211,-0.969816 0.21556,-0.538914 0.43053,-1.078337 0.64609,-1.61726 0.26947,-0.538921 0.53986,-0.996544 0.80931,-1.373793 0.32336,-0.431136 0.56603,-0.647444 0.72771,-0.647444 h 16.81329 c 0.26945,-7e-6 0.53985,-0.106802 0.8093,-0.322371 0.26948,-0.269457 0.45806,-0.539855 0.56585,-0.809305 0,-0.0539 -0.0541,-0.134332 -0.16186,-0.242117 -0.054,-0.107784 -0.10797,-0.18822 -0.16187,-0.242115 -0.16167,-0.215562 -0.5125,-0.566396 -1.05142,-1.051422 -0.53893,-0.538922 -1.13107,-1.078346 -1.77777,-1.617267 -0.59281,-0.538922 -1.1586,-1.022911 -1.69752,-1.454041 -0.53891,-0.431138 -0.91611,-0.673804 -1.13167,-0.727699 l -0.48559,0.242115 c -0.16168,0.215562 -0.32255,0.512319 -0.48423,0.889562 -0.16167,0.323353 -0.35163,0.672822 -0.5672,1.050063 -0.16166,0.323353 -0.37662,0.620103 -0.64609,0.889567 -0.21556,0.269451 -0.4846,0.403971 -0.80795,0.403971 l -0.48558,-0.161862 -0.24211,-0.484225 v -2.183105 c 0,-1.508974 0.21494,-2.506027 0.64608,-2.991053 0.48503,-0.485026 1.05081,-0.780418 1.69752,-0.888203 l 1.94099,-0.485583 c 0.6467,-0.215568 1.15841,-0.809076 1.53565,-1.779128 0.054,-1.886223 0.16205,-3.71809 0.32372,-5.496522 0.16168,-1.832327 0.24212,-3.69192 0.24212,-5.578133 0,-0.700595 -0.35084,-1.238661 -1.05143,-1.615904 -0.64669,-0.377243 -1.37336,-0.673994 -2.18173,-0.889562 -0.80839,-0.269461 -1.56277,-0.458055 -2.26337,-0.565839 -0.64669,-0.161676 -0.97117,-0.350271 -0.97117,-0.565839 V 8.265732 c 0,-0.5928108 0.43128,-0.8882019 1.29354,-0.8882019 0.91616,-0.05389 1.88685,-0.027534 2.9108,0.080246 1.07784,0.0539 2.04718,0.081612 2.90945,0.081612 0.91616,0 1.37515,-0.2703917 1.37515,-0.8093115 l -0.16186,-0.4039761 c -0.21557,-0.1616757 -0.62047,-0.4847866 -1.21329,-0.9698136 -0.53892,-0.5389199 -1.13107,-1.078345 -1.77777,-1.6172648 -0.59281,-0.5928108 -1.1586,-1.104517 -1.69752,-1.5356521 -0.48503,-0.4850279 -0.78177,-0.7277008 -0.88956,-0.7277008 z m -118.66962,0.565831 c -0.10778,0.053899 -0.18958,0.1079704 -0.24348,0.1618632 l -0.16049,0.080246 c -0.16169,0.1077847 -0.51251,0.4863344 -1.05143,1.1330371 -0.53892,0.6467036 -1.15878,1.4274412 -1.85938,2.3436043 -0.6467,0.9161631 -1.346998,1.9132148 -2.101488,2.9910545 -0.75449,1.0239469 -1.454786,1.9946398 -2.101492,2.9108028 -0.646699,0.916163 -1.186122,1.723259 -1.61726,2.423855 -0.377249,0.646703 -0.565839,1.025253 -0.565839,1.133037 0,1.508975 0.431263,2.72098 1.293538,3.637144 0.862269,0.862268 2.047918,1.293538 3.556892,1.293538 1.562859,0 2.774869,-0.269032 3.637139,-0.807948 0.91617,-0.538922 1.5901,-1.266941 2.02124,-2.183105 0.48503,-0.916163 0.78178,-1.940934 0.88956,-3.072666 0.16168,-1.185623 0.2962,-2.397628 0.40398,-3.637142 l 0.16186,-1.7777673 c 0.0539,-0.5928117 0.0539,-1.1863143 0,-1.7791261 0,-0.2155676 -0.10815,-0.5386785 -0.32372,-0.9698146 -0.16168,-0.485027 -0.37663,-0.9967331 -0.64609,-1.535652 -0.21557,-0.5389198 -0.45825,-1.0242664 -0.72771,-1.4554015 -0.21556,-0.4311361 -0.40415,-0.7278874 -0.56583,-0.889564 z m 129.09819,0.2421138 c -0.26946,0 -0.45806,0.081801 -0.56585,0.243474 l -0.24347,0.4842267 c -0.32334,1.0778397 -0.51195,2.1830485 -0.56584,3.3147792 0,1.1317315 -0.13451,2.2369394 -0.40396,3.3147791 -0.86229,3.5568681 -1.75118,7.1401681 -2.66734,10.7509301 -0.86228,3.556871 -1.29354,7.194246 -1.29354,10.912789 0,0.431131 0.16225,0.647452 0.48558,0.647452 0.43114,0 1.05101,-0.565789 1.85939,-1.697515 0.80838,-1.185628 1.61683,-2.45307 2.42522,-3.800365 0.86226,-1.40119 1.643,-2.667275 2.34359,-3.799008 0.7006,-1.185621 1.2123,-1.77777 1.53566,-1.77777 H 247.656 c 0.37723,0 0.59219,-0.134512 0.64608,-0.40397 0.10779,-0.269464 0.10779,-0.539855 0,-0.809312 -0.054,-0.107785 -0.34928,-0.457256 -0.88821,-1.050068 -0.53891,-0.592812 -1.13242,-1.212675 -1.77912,-1.859378 -0.6467,-0.700595 -1.23884,-1.320458 -1.77777,-1.859378 -0.53892,-0.538918 -0.83567,-0.809312 -0.88956,-0.809312 -0.53891,0 -0.99655,0.296752 -1.37379,0.889564 -0.32335,0.53892 -0.67418,1.158782 -1.05142,1.859378 -0.32336,0.700594 -0.70055,1.348177 -1.13169,1.940988 -0.43113,0.538918 -0.97055,0.80795 -1.61725,0.80795 -0.7006,0 -1.05007,-0.377189 -1.05007,-1.131675 0,-0.215567 0.18859,-0.889509 0.56584,-2.02124 0.37724,-1.185624 0.78079,-2.451707 1.21193,-3.799007 0.48503,-1.347298 0.91628,-2.587022 1.29354,-3.7187539 0.43114,-1.1317305 0.70016,-1.7515938 0.80795,-1.8593775 0.26945,-0.3233514 0.59393,-0.5923838 0.97117,-0.8079514 0.37724,-0.2155685 0.70035,-0.4859611 0.96981,-0.8093125 l 0.0803,-0.4039761 c -0.21557,-0.3233513 -0.75363,-0.6464623 -1.61591,-0.9698137 -0.80838,-0.3772441 -1.72499,-0.6739954 -2.74894,-0.8895639 -1.02398,-0.2694595 -2.02102,-0.4844134 -2.99108,-0.6460891 -0.97005,-0.1616756 -1.67037,-0.243474 -2.10149,-0.243474 z m 72.83401,0.5671987 c -0.53892,0 -0.80796,0.2690324 -0.80796,0.8079522 V 53.455269 c 0,0.538923 0.26904,0.807955 0.80796,0.807955 0.37723,0 1.0789,-0.02771 2.10285,-0.08161 1.07783,-0.107784 2.18168,-0.242305 3.31341,-0.403978 1.13173,-0.215568 2.12878,-0.458235 2.99106,-0.727699 0.86227,-0.323353 1.29354,-0.70054 1.29354,-1.131677 V 26.293671 c 0,-0.538922 0.27039,-0.809313 0.80932,-0.809313 h 12.12471 c 0.21555,0 0.43188,-0.05411 0.64744,-0.161861 0.21557,-0.107785 0.35008,-0.268664 0.40398,-0.484232 0,-0.0539 -0.0804,-0.162049 -0.24211,-0.323722 -0.16168,-0.161673 -0.35028,-0.35027 -0.56584,-0.565839 -0.16167,-0.215568 -0.35027,-0.404165 -0.56584,-0.565838 -0.16168,-0.215569 -0.26983,-0.350089 -0.32372,-0.403977 -0.21557,-0.215569 -0.64684,-0.620473 -1.29353,-1.21329 -0.64672,-0.6467 -1.34702,-1.292917 -2.10151,-1.939624 -0.7006,-0.700596 -1.34818,-1.292741 -1.94099,-1.777768 -0.59281,-0.53892 -0.97,-0.809313 -1.13166,-0.809313 -0.37726,0 -0.7808,0.323111 -1.21194,0.969815 -0.37724,0.592811 -0.78215,1.294469 -1.21328,2.102849 -0.43114,0.754484 -0.86241,1.454786 -1.29354,2.101492 -0.43114,0.592811 -0.86105,0.889569 -1.29217,0.889569 -0.37725,-8e-6 -0.56585,-0.188598 -0.56585,-0.565839 V 6.4879661 c -1e-5,-0.3772432 0.2413,-0.728074 0.72633,-1.0514254 0.53892,-0.3772442 0.94383,-0.6462756 1.2133,-0.8079522 l 0.24211,-0.4855869 -0.24211,-0.3223644 C 313.91627,3.1739335 309.95442,2.8508226 306.02032,2.8508226 Z m -40.1759,0.5658384 c -0.37723,0 -0.56583,0.2149539 -0.56584,0.6460899 V 75.604578 c 1e-5,0.538914 0.26904,0.807948 0.80795,0.807948 1.13174,0 2.29102,-0.08044 3.47665,-0.24211 1.18562,-0.16168 2.26311,-0.484782 3.23318,-0.969816 0.97005,-0.485026 1.7785,-1.158969 2.42521,-2.021237 0.64669,-0.862275 0.96981,-1.99384 0.96981,-3.39503 0,-0.592818 0.27039,-0.889567 0.80931,-0.889567 h 48.74507 c 0.80838,0 1.02333,-0.377194 0.64608,-1.131678 -0.10778,-0.215569 -0.61948,-0.754992 -1.53565,-1.617259 -0.91615,-0.916164 -1.93956,-1.831422 -3.07129,-2.747586 -1.07785,-0.970052 -2.10262,-1.832585 -3.07267,-2.587075 -0.91617,-0.754485 -1.45423,-1.131678 -1.6159,-1.131678 -0.26946,0 -0.67438,0.403553 -1.21329,1.211926 -0.48503,0.808386 -1.02446,1.724995 -1.61727,2.748943 -0.59281,0.97006 -1.23903,1.858951 -1.93962,2.667331 -0.64671,0.808379 -1.23885,1.213289 -1.77778,1.213289 l -33.62929,0.565839 c -0.16167,0 -0.37663,-0.108161 -0.64609,-0.32373 -0.21556,-0.269456 -0.37781,-0.458053 -0.48558,-0.565837 l -0.24212,-0.565839 v -4.364846 c 0,-2.155674 -0.0277,-4.689201 -0.0816,-7.599372 V 45.047942 34.619384 c 0.054,-3.502981 0.0816,-6.897683 0.0816,-10.18509 0.054,-3.341301 0.10797,-6.306099 0.16186,-8.892914 0.054,-2.586814 0.13434,-4.687715 0.24212,-6.3044732 0.10779,-1.6706504 0.21593,-2.5872641 0.32372,-2.7489407 0.26946,-0.3233513 0.56485,-0.5660251 0.8882,-0.7277008 0.32336,-0.2155675 0.62011,-0.4845999 0.88957,-0.8079513 -0.10778,-0.1616756 -0.32274,-0.3502709 -0.6461,-0.5658384 l -5.82024,-0.6474502 c -1.88621,-0.2155675 -3.79988,-0.3223644 -5.74,-0.3223644 z M 31.315327,5.6691321 V 30.702042 l 9.9661,7.247077 V 15.635233 h 4.103688 V 5.6691321 Z m 18.173475,0 v 9.9661009 h 2.931207 v 4.105048 h -7.034894 v 24.926812 l 7.034894,5.001412 v 5.949464 L 41.281427,47.504447 V 42.380619 L 31.315326,35.092724 V 52.481373 L 57.109936,71.329507 82.905909,52.481373 V 35.099529 l -9.966101,7.287886 v 5.122471 l -11.139941,8.102645 v -5.944026 l 7.036252,-5.001412 V 19.740281 h -7.036252 v -4.105048 h 2.931204 V 5.6691321 Z m 19.347318,0 v 9.9661009 h 4.103688 v 21.87999 l 9.966101,-7.112424 V 5.6691321 Z m 286.73857,1.464924 h 10.75093 c 0.53892,0 0.80932,0.2703926 0.80932,0.8093124 V 32.194164 c 0,0.538928 -0.2704,0.807953 -0.80932,0.807953 h -10.75093 c -0.53891,0 -0.80794,-0.269025 -0.80794,-0.807953 V 7.9433685 c 0,-0.5389198 0.26903,-0.8093124 0.80794,-0.8093124 z M 212.13331,7.5992398 c 0.091,0 0.18317,0.00698 0.27748,0.020408 0.43113,0 0.80832,0.108157 1.13168,0.3237255 0.37724,0.1616757 0.56584,0.4307072 0.56584,0.8079514 v 7.0335333 c 0,0.431136 -0.1886,0.726527 -0.56584,0.888203 -0.32336,0.161676 -0.70055,0.243474 -1.13168,0.243474 -0.37724,0 -0.72807,-0.05407 -1.05143,-0.161862 -0.32334,-0.161676 -0.48423,-0.296193 -0.48423,-0.403977 V 8.2657348 c 0,-0.2155675 0.16089,-0.3764429 0.48423,-0.4842267 0.24252,-0.1212567 0.50112,-0.1822655 0.77395,-0.1822655 z M 125.26762,10.85281 c -0.53892,0 -0.80932,0.270393 -0.80932,0.809313 0,9.70055 0.0278,19.3466 0.0816,28.939367 0.054,9.538879 0.16205,19.158562 0.32372,28.859113 0,1.023948 -0.0278,2.021001 -0.0816,2.991053 0,1.023948 0.10816,2.021 0.32372,2.99106 0.10778,0.485026 0.37682,0.7277 0.80796,0.7277 0.70058,0 1.45496,-0.02772 2.26335,-0.08161 0.80837,0 1.59047,-0.08044 2.34496,-0.242116 0.80838,-0.161674 1.53504,-0.430706 2.18174,-0.807947 0.6467,-0.377249 1.18613,-0.916673 1.61727,-1.617268 0.16167,-0.215568 0.26982,-1.158537 0.32372,-2.829192 0.10779,-1.616758 0.18822,-3.691299 0.24211,-6.224222 0.0539,-2.532922 0.0816,-5.415918 0.0816,-8.649436 0.054,-3.233517 0.0803,-6.547783 0.0803,-9.942974 V 35.589193 c 10e-6,-3.39519 -0.0264,-6.493143 -0.0803,-9.295522 0,-2.856276 -0.0278,-5.335727 -0.0816,-7.437513 v -4.446455 l 0.16187,-0.403976 c 0.53892,-0.53892 1.13106,-0.970187 1.77777,-1.293539 l 0.24347,-0.484227 -0.24347,-0.243474 c -1.88623,-0.269459 -3.79853,-0.512132 -5.73864,-0.7277 -1.94011,-0.26946 -3.88013,-0.403977 -5.82024,-0.403977 z m 66.52952,3.314779 c 0.21557,0 0.37644,0.02635 0.48422,0.08025 0.16168,0.0539 0.24348,0.216127 0.24348,0.485587 v 7.032171 c 0,0.107792 -0.0278,0.243662 -0.0816,0.405342 -0.054,0.161673 -0.13434,0.242109 -0.24212,0.242109 -0.32335,0 -0.91685,-0.269032 -1.77913,-0.807947 -0.80837,-0.592817 -1.66955,-1.266754 -2.58572,-2.021245 -0.91615,-0.754484 -1.72461,-1.482506 -2.42521,-2.1831 -0.64671,-0.754489 -0.96981,-1.266194 -0.96981,-1.535653 0,-0.215569 0.10679,-0.538679 0.32236,-0.969815 0.16168,-0.107783 0.56659,-0.215941 1.21329,-0.323724 0.64671,-0.107785 1.347,-0.188223 2.10149,-0.242115 0.75449,-0.05389 1.4825,-0.08161 2.18311,-0.08161 0.75447,-0.0539 1.26619,-0.08025 1.53565,-0.08025 z m 19.88594,3.799007 h 7.51777 c 0.53891,0 0.80795,0.270392 0.80795,0.809312 v 8.567826 c 0,0.538922 -0.26904,0.809313 -0.80795,0.809313 h -7.51777 c -0.53892,0 -0.80795,-0.270391 -0.80795,-0.809313 v -8.567826 c 0,-0.53892 0.26903,-0.809312 0.80795,-0.809312 z m -26.5155,0.727701 0.32373,0.161861 c 0.43113,0.485027 0.75423,1.213047 0.9698,2.183106 0.26946,0.916156 0.45806,1.913209 0.56584,2.991053 0.10779,1.023942 0.16187,2.04736 0.16187,3.071301 v 2.50547 c 0,0.323353 0.27039,0.620103 0.80931,0.88956 0.59281,0.269458 1.02273,0.403978 1.29217,0.403978 0.21557,0 0.48597,-0.05411 0.80931,-0.161861 0.37726,-0.161674 0.75445,-0.268469 1.13168,-0.322365 0.37725,-0.0539 0.70037,-0.02751 0.96982,0.08024 0.26947,0.0539 0.40398,0.27021 0.40398,0.647452 v 1.131676 c 0.054,0.377242 0.0276,0.754435 -0.0803,1.131677 -0.054,0.431137 -0.29657,0.700171 -0.72771,0.807955 -0.97005,0.269457 -2.02118,0.430336 -3.15292,0.484225 h -3.15291 c -0.37724,0 -0.72671,-0.106795 -1.05006,-0.322364 -0.32335,-0.215563 -0.48558,-0.538679 -0.48558,-0.969816 l 0.48558,-13.661733 c 0,-0.161673 0.0527,-0.350271 0.1605,-0.565837 0.16168,-0.26946 0.35027,-0.431695 0.56584,-0.485586 z m -79.13983,0.889561 -0.24212,0.242117 0.24212,0.242109 h 16.73303 l 0.24347,-0.242109 -0.24347,-0.242117 z m 254.47763,0 c -0.86228,0 -1.67073,0.02632 -2.42523,0.08025 -0.75448,0 -1.21211,0.02771 -1.37378,0.0816 l -0.16187,0.242117 c 0.16169,0.0539 0.61931,0.107972 1.37379,0.16186 h 2.66869 2.74759 c 0.91616,-0.0539 1.53602,-0.08161 1.85936,-0.08161 l 0.16188,-0.160497 -0.0803,-0.08161 -0.56584,-0.242117 h -1.69752 z m 18.75426,0 -0.2421,0.242117 0.2421,0.242109 h 8.56921 l 0.16184,-0.160496 -0.0816,-0.08161 -0.56584,-0.242117 z m -229.49913,3.718761 c -0.37724,0.161672 -0.83486,0.511141 -1.37378,1.050063 -0.48503,0.538915 -0.99673,1.132421 -1.53566,1.779128 -0.53892,0.59281 -1.05062,1.130875 -1.53565,1.615901 -0.43113,0.485027 -0.78196,0.7277 -1.05142,0.7277 h -6.70981 c -0.16168,0 -0.35028,0.0818 -0.56584,0.243474 -0.16168,0.16168 -0.24213,0.322552 -0.24213,0.484226 1e-5,0.215561 0.13453,0.350081 0.40399,0.403977 0.26946,0.0539 0.45806,0.08161 0.56584,0.08161 0.32336,0 0.91685,-0.02771 1.77913,-0.08161 0.86226,-0.107785 1.75116,-0.188221 2.66733,-0.242117 0.91616,-0.0539 1.72462,-0.02751 2.42521,0.08025 0.7006,0.107778 1.05006,0.404535 1.05006,0.889561 v 19.64384 c 0,0.592809 -0.48397,0.915919 -1.45403,0.969815 -0.91617,0 -1.94094,-0.02632 -3.07268,-0.08024 -1.07783,-0.107784 -2.10125,-0.161868 -3.0713,-0.161868 -0.91616,0 -1.37379,0.24268 -1.37379,0.727707 0.10779,0.107784 0.56542,0.18822 1.37379,0.242108 h 2.66734 2.74894 c 0.86227,-0.0539 1.42804,-0.08024 1.69751,-0.08024 0.48503,0 0.75406,0.242673 0.80796,0.7277 0.054,0.43113 0.054,0.915119 0,1.454041 -0.054,0.538915 -0.054,1.051986 0,1.537012 0.054,0.431137 0.32428,0.646092 0.80931,0.646092 0.48503,0 1.26577,-0.08045 2.3436,-0.242115 1.07783,-0.215568 2.15533,-0.485959 3.23317,-0.809312 1.07783,-0.377243 2.02081,-0.808512 2.82919,-1.293538 0.86226,-0.485026 1.29354,-1.050808 1.29354,-1.697515 V 32.517893 c 0,-0.323353 0.10815,-0.566027 0.32372,-0.7277 0.21556,-0.161681 0.45824,-0.2962 0.72771,-0.403978 0.32334,-0.10779 0.59237,-0.18822 0.80794,-0.242116 0.21557,-0.107783 0.32373,-0.297738 0.32373,-0.567195 0,-0.161681 -0.40491,-0.591586 -1.21329,-1.29218 -0.80838,-0.754484 -1.75135,-1.56294 -2.82919,-2.425215 -1.02395,-0.862275 -2.021,-1.644371 -2.99105,-2.344966 -0.97006,-0.700595 -1.58992,-1.104147 -1.85939,-1.211924 z m -92.643772,0.693692 2.391211,6.060995 6.401048,0.432545 -4.89396,4.088724 1.517972,6.28951 -5.428514,-3.435833 -5.416269,3.435833 1.523411,-6.296308 -4.906199,-4.103688 6.42417,-0.433903 z m 46.727902,0.276115 c -0.13473,0 -0.26924,0.02639 -0.40397,0.08025 -0.21557,0.107777 -0.32236,0.350457 -0.32236,0.727699 0,5.389198 0.0804,10.725279 0.24211,16.006693 0.16168,5.227518 0.24211,10.535896 0.24211,15.925086 0,0.538922 0.26903,0.807955 0.80795,0.807955 0.53892,0 1.15879,-0.02771 1.85938,-0.08161 0.75448,-0.107784 1.50887,-0.242296 2.26335,-0.403977 0.75449,-0.215568 1.45614,-0.458241 2.10286,-0.727699 0.70059,-0.269465 1.23865,-0.592574 1.61589,-0.969815 0.16168,-0.161681 0.35028,-0.458431 0.56584,-0.889562 0.21557,-0.431137 0.43189,-0.861049 0.64746,-1.292179 0.21557,-0.485033 0.40415,-0.916297 0.56584,-1.293538 0.16167,-0.377242 0.29618,-0.565838 0.40397,-0.565838 0.26946,0 0.83524,0.02632 1.69752,0.08024 h 2.66733 2.66732 c 0.80838,-0.0539 1.26737,-0.134324 1.37515,-0.242109 0,-0.485026 -0.51171,-0.727707 -1.53566,-0.727707 -0.97004,0 -2.04889,0.0541 -3.23452,0.161868 -1.18562,0.0539 -2.28947,0.0539 -3.31342,0 -0.97005,-0.0539 -1.45539,-0.350644 -1.45539,-0.889566 v -19.64383 c 0,-0.377241 0.35083,-0.619916 1.05142,-0.727699 0.70059,-0.161674 1.48133,-0.242117 2.3436,-0.242117 0.91617,0 1.7787,0.0541 2.58708,0.161868 0.86227,0.107784 1.42806,0.161861 1.69752,0.161861 0.16168,0 0.51251,0.02632 1.05142,0.08024 0.53891,0 0.80795,-0.134519 0.80795,-0.403976 0,-0.377242 -0.21631,-0.565839 -0.64745,-0.565839 -0.37724,-0.0539 -0.70034,-0.08024 -0.96981,-0.08024 -2.15568,0 -4.23022,-0.21632 -6.22422,-0.647452 -1.94011,-0.485025 -3.90786,-1.104884 -5.90186,-1.859375 -0.75448,-0.269465 -1.5893,-0.592574 -2.50546,-0.969817 -0.91617,-0.43113 -1.6969,-0.727886 -2.34361,-0.889559 -0.13473,-0.0539 -0.2706,-0.08025 -0.40534,-0.08025 z M 280.072,24.838265 c -0.53892,0 -1.02426,0.05411 -1.4554,0.161867 -0.43114,0.0539 -0.6461,0.134326 -0.6461,0.242109 0.1078,0.161674 0.32274,0.269834 0.6461,0.32373 0.32335,0.0539 0.67417,0.08024 1.05142,0.08024 h 1.13167 c 0.37725,-0.0539 0.64629,-0.08025 0.80796,-0.08024 h 0.64745 c 0.37724,-0.0539 0.56584,-0.162056 0.56584,-0.32373 -0.16167,-0.161672 -0.5125,-0.269833 -1.05143,-0.323721 -0.53891,-0.0539 -1.1047,-0.08025 -1.69751,-0.08025 z m -24.41267,0.08025 c -0.97006,0 -1.48311,0.02771 -1.537,0.08161 l 0.16186,0.24211 0.56584,0.242117 h 7.51776 c 0.10778,0 0.27002,-0.05411 0.48558,-0.161862 0.26946,-0.107785 0.4317,-0.21458 0.48559,-0.322365 -0.054,-0.0539 -0.56695,-0.08161 -1.53701,-0.08161 h -3.07131 z m 42.6011,0 c -0.5928,0 -0.91592,0.02771 -0.96981,0.08161 0,0.161674 0.0805,0.296186 0.24211,0.403971 0.21558,0.0539 0.37781,0.08025 0.48559,0.08025 h 4.68857 l 0.56584,-0.242117 0.16186,-0.24211 c -0.0539,-0.0539 -0.40472,-0.08161 -1.05142,-0.08161 h -2.02124 z m -85.52592,4.446452 c 0.21558,0.107784 0.4846,0.29638 0.80796,0.565837 0.32334,0.215569 0.48423,0.45825 0.48423,0.727707 v 7.75987 c 0,0.215568 -0.26904,0.45824 -0.80796,0.727706 -0.48503,0.26945 -0.80814,0.403969 -0.96981,0.403969 -0.26947,0 -0.56621,-0.106794 -0.88957,-0.322363 -0.32334,-0.215562 -0.48423,-0.458236 -0.48423,-0.7277 v -8.00335 c 0,-0.377241 0.24269,-0.646274 0.72771,-0.807948 0.48503,-0.215568 0.86222,-0.323728 1.13167,-0.323728 z m 28.5354,0.485589 c -0.26946,0 -0.6203,0.269034 -1.05144,0.807955 -0.37723,0.538915 -0.78078,1.158781 -1.21192,1.859377 -0.37725,0.646706 -0.75443,1.292924 -1.13167,1.939623 -0.37725,0.646706 -0.674,1.077976 -0.88957,1.293545 -0.26945,0.269458 -0.78116,0.40397 -1.53565,0.40397 l -2.26335,-0.161861 c -0.75449,-0.0539 -1.42843,-0.08024 -2.02124,-0.08024 -0.59282,0 -0.88957,0.162238 -0.88957,0.485583 0,0.269458 0.13452,0.403978 0.40397,0.403978 h 17.13838 l 0.24211,-0.323722 -0.16186,-0.403978 c -0.26946,-0.215569 -0.72708,-0.646838 -1.37379,-1.293538 -0.64671,-0.700594 -1.32064,-1.400896 -2.02124,-2.101492 -0.7006,-0.75449 -1.37455,-1.402067 -2.02124,-1.940989 -0.59281,-0.592811 -0.99635,-0.888203 -1.21192,-0.888203 z m 139.607,6.386083 -0.32372,0.322365 c 0.054,0.646706 0.27021,1.29429 0.64745,1.940989 0.37723,0.646707 0.78079,1.266572 1.21193,1.859376 0.43113,0.592818 0.80833,1.1586 1.13168,1.697515 0.37723,0.538922 0.56585,0.996551 0.56585,1.373793 0,0.43113 -0.18862,0.700163 -0.56585,0.807955 -0.37725,0.107777 -0.83487,0.16186 -1.37379,0.16186 -0.53893,-0.0539 -1.07836,-0.107972 -1.61727,-0.16186 -0.48503,-0.107792 -0.8345,-0.160504 -1.05006,-0.160504 -0.16167,0 -0.29755,0.106796 -0.40533,0.322364 -0.054,0.21557 -0.0802,0.377807 -0.0802,0.485584 v 30.718497 c 0,0.485025 0.24267,0.727699 0.7277,0.727699 0.37724,0 1.05118,-0.02771 2.02124,-0.08161 0.97005,-0.0539 1.96711,-0.188409 2.99105,-0.403977 1.02396,-0.161674 1.9392,-0.404347 2.74758,-0.7277 0.80838,-0.269458 1.21328,-0.646651 1.21328,-1.131677 V 49.00881 l 0.24212,-0.565837 0.16187,-0.161862 0.40397,-0.161861 c 0.59281,0.161673 1.34719,0.619308 2.26336,1.373793 0.97006,0.700595 1.99482,1.48269 3.07265,2.344959 1.13175,0.862275 2.26331,1.643013 3.39504,2.343609 1.18563,0.646699 2.31719,0.971173 3.39502,0.971173 0.43114,0 0.75426,-0.350834 0.96983,-1.051428 0.26946,-0.754484 0.45805,-1.293907 0.56582,-1.61726 0.64672,-1.508975 1.34701,-2.775061 2.10151,-3.799008 0.75448,-1.077837 1.8056,-2.101256 3.15291,-3.071307 l 0.24212,-0.485585 -0.24212,-0.242115 c -3.82633,-0.538914 -7.59823,-1.212859 -11.31677,-2.021238 -3.66465,-0.862267 -7.24931,-2.182437 -10.75228,-3.960868 -0.26946,-0.107783 -0.67302,-0.296381 -1.21194,-0.565838 -0.53891,-0.323354 -1.10469,-0.620103 -1.69751,-0.889561 -0.53891,-0.323353 -1.05063,-0.592385 -1.53566,-0.807954 -0.48502,-0.269457 -0.83585,-0.403978 -1.05142,-0.403978 z m -262.64283,3.152915 c -0.70061,0 -1.34684,0.05272 -1.93963,0.160502 -0.59282,0.0539 -0.94364,0.189767 -1.05143,0.405335 0.16169,0.0539 0.62066,0.106616 1.37516,0.160504 h 2.42521 2.34361 c 0.75448,-0.0539 1.18575,-0.106608 1.29354,-0.160504 -0.054,-0.107783 -0.21615,-0.215938 -0.4856,-0.323721 -0.21557,-0.107785 -0.37644,-0.161862 -0.48422,-0.161862 h -1.37515 c -0.64671,-0.0539 -1.34702,-0.08025 -2.10149,-0.08025 z m 19.56358,0.08025 c -0.10779,0 -0.29637,0.0541 -0.56584,0.161862 -0.26945,0.107784 -0.40533,0.215938 -0.40533,0.323722 0.0539,0.0539 0.4588,0.106615 1.21328,0.160503 h 2.42522 2.50546 c 0.80838,-0.0539 1.23965,-0.106608 1.29355,-0.160503 0,-0.107784 -0.13452,-0.215938 -0.40397,-0.323722 -0.26947,-0.107785 -0.45806,-0.161862 -0.56585,-0.161862 z m 160.13906,7.598015 -0.56584,0.243467 -0.0802,0.08025 0.16186,0.16186 c 0.21557,0 0.61911,0.02771 1.21193,0.08161 h 1.94099 1.85802 c 0.53892,-0.0539 0.86339,-0.107973 0.97117,-0.161861 l -0.16186,-0.243474 c -0.16168,-0.0539 -0.48479,-0.08025 -0.96981,-0.08025 -0.48503,-0.0539 -1.02445,-0.0816 -1.61727,-0.0816 h -1.61726 z m -81.96903,3.072659 c 0.37724,0 0.70035,0.05411 0.96981,0.161867 0.26946,0.107785 0.40397,0.268658 0.40397,0.484227 v 21.018989 c 0,0.377242 -0.13451,0.646275 -0.40397,0.807954 -0.26946,0.161674 -0.59257,0.269827 -0.96981,0.323723 -0.32336,0.0539 -0.62011,0.02619 -0.88958,-0.08161 -0.26945,-0.107777 -0.40396,-0.268656 -0.40396,-0.484225 V 50.786581 c 0,-0.215569 0.13451,-0.376442 0.40396,-0.484227 0.26947,-0.107783 0.56622,-0.161867 0.88958,-0.161867 z m 17.46073,0 c 0.21556,0 0.45824,0.05411 0.7277,0.161867 0.26946,0.0539 0.40397,0.214763 0.40397,0.484227 V 72.3714 c 0,0.215569 -0.18859,0.376448 -0.56582,0.484225 -0.32337,0.107784 -0.70056,0.135502 -1.13169,0.08161 -0.37723,-0.0539 -0.72807,-0.216134 -1.05143,-0.485591 -0.32335,-0.215568 -0.48423,-0.566395 -0.48423,-1.051421 0,-2.317354 0.0263,-4.60685 0.0803,-6.870314 0.0539,-2.263466 0.13569,-4.554314 0.24347,-6.871667 0.054,-1.077844 0.054,-2.155333 0,-3.233169 0,-1.131732 0.0804,-2.236938 0.24211,-3.314782 0.10779,-0.485026 0.26866,-0.75406 0.48422,-0.807948 0.26947,-0.107784 0.6203,-0.161868 1.05144,-0.161868 z m -8.40733,0.08025 c 0.21557,0 0.43189,0.02771 0.64746,0.08161 0.21556,0.0539 0.32235,0.214762 0.32235,0.484226 v 21.018989 c 0,0.431138 -0.18858,0.72653 -0.56583,0.888203 -0.32335,0.161673 -0.70054,0.215757 -1.13167,0.161862 -0.37724,0 -0.72672,-0.134521 -1.05006,-0.403979 -0.32336,-0.269457 -0.4856,-0.64665 -0.4856,-1.131676 V 51.352418 c 0,-0.700595 0.24268,-1.050064 0.72771,-1.050064 0.53891,-0.0539 1.05062,-0.08161 1.53564,-0.08161 z m -66.71722,4.366204 c -0.26921,0.02284 -0.66401,0.400766 -1.18609,1.131677 -0.53893,0.75449 -1.13243,1.589305 -1.77914,2.505469 -0.64669,0.916164 -1.29292,1.750979 -1.93962,2.505463 -0.6467,0.754484 -1.15841,1.131676 -1.53565,1.131676 H 136.9081 c -0.26946,0 -0.40398,0.135878 -0.40398,0.405335 0,0.269466 0.13452,0.403978 0.40398,0.403978 h 28.85912 c 0.5928,0 0.80776,-0.270383 0.64609,-0.809313 -0.054,-0.161673 -0.48517,-0.619301 -1.29354,-1.373785 -0.80839,-0.754491 -1.69729,-1.562947 -2.66734,-2.425222 -0.97005,-0.916164 -1.8853,-1.724619 -2.74758,-2.425214 -0.80838,-0.700595 -1.26736,-1.050064 -1.37515,-1.050064 -0.009,0 -0.0171,-6.97e-4 -0.0258,0 z m -64.562702,7.51776 -0.323723,0.242116 0.323723,0.323722 h 29.019612 l 0.24347,-0.323722 -0.24347,-0.242116 z" />
</svg>
