<?xml version="1.0" encoding="UTF-8" standalone="no"?>
<svg
   width="542"
   height="112"
   viewBox="0 0 542 112"
   fill="none"
   version="1.1"
   id="svg32"
   sodipodi:docname="game_logo.svg"
   inkscape:version="1.4.2 (f4327f4, 2025-05-13)"
   xmlns:inkscape="http://www.inkscape.org/namespaces/inkscape"
   xmlns:sodipodi="http://sodipodi.sourceforge.net/DTD/sodipodi-0.dtd"
   xmlns="http://www.w3.org/2000/svg"
   xmlns:svg="http://www.w3.org/2000/svg">
  <path
     style="font-size:116.077px;font-family:SoukouMincho;-inkscape-font-specification:SoukouMincho;fill:#ffffff;stroke-width:2.72056"
     d="m 151.04246,29.186177 0.34823,-0.348231 q 2.78585,-0.116077 4.17877,-0.232154 1.509,-0.116077 2.5537,-0.580385 1.04469,-0.580385 1.9733,-1.741155 0.92862,-1.16077 2.5537,-3.366234 0.92861,-1.16077 1.74115,-2.32154 0.92862,-1.16077 1.85724,-2.32154 l 0.69646,-0.348231 0.69646,0.232154 q 0.11608,0.232154 0.69646,0.696462 0.58039,0.464308 1.27685,0.928616 0.69646,0.464308 1.27685,0.928616 0.69646,0.348231 0.92861,0.348231 0.92862,0 1.16077,-0.696462 0.23216,-0.464308 0.23216,-0.928616 0,-0.580385 0.11607,-1.044693 0.11608,-0.464308 0.34823,-1.741155 0.34824,-1.392924 0.46431,-2.669771 0.23216,-1.276847 0,-2.32154 -0.23215,-1.044693 -1.27685,-1.044693 h -62.10119 q -1.16077,0 -1.16077,-1.1607699 0,-0.348231 0.46431,-0.348231 h 62.21727 l 0.81254,-0.348231 q 0.34823,-0.348231 1.509,-1.5090011 1.27685,-1.276847 2.55369,-2.5536941 1.39293,-1.276847 2.5537,-2.205463 1.16077,-1.044693 1.509,-1.044693 0.46431,0 2.43762,1.741155 1.97331,1.6250781 4.17877,3.7144641 2.20546,2.0893861 3.94662,3.946618 1.85723,1.857232 1.85723,2.205463 0,0.928616 -2.78585,2.32154 -2.78585,1.276847 -6.26816,2.785848 -3.36623,1.392924 -6.38423,2.901925 -2.90193,1.392924 -3.13408,2.669772 l 0.23215,0.696462 q 0.34823,0.348231 0.92862,0.928616 0.69646,0.580385 1.27685,1.276847 0.69646,0.696462 1.27684,1.392924 0.58039,0.580385 0.69646,0.812539 l -0.23215,0.464308 q -0.23215,0.116077 -2.20546,0.232154 -1.97331,0.116077 -4.75916,0.116077 -2.78585,0 -6.036,0 -3.25016,0 -6.26816,0 -3.018,-0.116077 -5.33954,-0.116077 -2.32154,0 -3.25016,0 z M 104.49558,3.6492359 q 0.34823,0.348231 0.81254,1.2768471 0.58038,0.928616 1.04469,2.089386 0.58039,1.1607701 0.92862,2.2054631 0.46431,0.9286159 0.46431,1.3929239 0.11607,1.276847 0,2.553694 -0.11608,1.276847 -0.23216,2.553694 -0.23215,2.669771 -0.58038,5.223465 -0.23216,2.437618 -1.27685,4.410927 -0.92862,1.973309 -2.90193,3.134079 -1.85723,1.16077 -5.22346,1.16077 -3.250156,0 -5.107388,-1.857232 -1.857232,-1.973309 -1.857232,-5.223466 0,-0.232154 0.812539,-1.625078 0.928616,-1.509001 2.32154,-3.48231 1.392924,-1.973309 3.018002,-4.178772 1.625078,-2.32154 3.018002,-4.2948489 1.508997,-1.9733091 2.669767,-3.3662331 1.16077,-1.3929241 1.509,-1.6250781 0.23216,-0.116077 0.23216,-0.116077 0.11608,-0.116077 0.34823,-0.232154 z M 151.855,18.274938 151.50677,18.9714 q -1.39293,0.696462 -2.5537,1.857232 l -0.23215,0.580385 q 0,1.857233 0,6.384236 0.11608,4.527003 0.11608,10.679084 0.11607,6.036004 0.11607,13.348855 0,7.312852 0,14.625703 0,7.312851 -0.11607,14.277471 0,6.96462 -0.11608,12.42024 -0.11608,5.455619 -0.34823,8.937924 -0.11608,3.59839 -0.46431,4.0627 -0.92862,1.509 -2.32154,2.32154 -1.39292,0.81254 -3.13408,1.16077 -1.62508,0.34823 -3.36623,0.34823 -1.74116,0.11608 -3.25016,0.11608 -0.92862,0 -1.16077,-1.04469 -0.46431,-2.08939 -0.46431,-4.29485 0.11608,-2.08939 0.11608,-4.29485 -0.34823,-20.893864 -0.46431,-41.439493 -0.11608,-20.661707 -0.11608,-41.555568 0,-1.16077 1.16077,-1.16077 4.17878,0 8.35755,0.580385 4.17877,0.464308 8.24147,1.044693 z m -44.57357,10.563008 h 24.02794 l 0.34823,0.348231 -0.34823,0.348231 h -24.02794 l -0.34823,-0.348231 z m 62.79766,5.339542 q 0.58038,0.232154 2.66977,1.741155 2.08938,1.509001 4.29485,3.366233 2.32154,1.857232 4.06269,3.48231 1.74116,1.509001 1.74116,1.857232 0,0.580385 -0.46431,0.812539 -0.46431,0.116077 -1.16077,0.348231 -0.58039,0.232154 -1.04469,0.580385 -0.46431,0.348231 -0.46431,1.044693 v 27.858481 q 0,1.392924 -1.85723,2.437617 -1.74116,1.044693 -4.0627,1.857232 -2.32154,0.696462 -4.64308,1.16077 -2.32154,0.348231 -3.36623,0.348231 -1.0447,0 -1.16077,-0.928616 -0.11608,-1.044693 0,-2.205463 0.11607,-1.16077 0,-2.089386 -0.11608,-1.044693 -1.16077,-1.044693 -0.58039,0 -2.43762,0.116077 -1.85723,0 -3.94662,0 -2.08938,0 -3.83054,0 -1.74115,-0.116077 -1.97331,-0.348231 0,-1.044693 1.97331,-1.044693 2.08939,0 4.41093,0.232154 2.43761,0.116077 4.41092,0.116077 2.08939,-0.116077 2.08939,-1.392924 V 44.276187 q 0,-1.044693 -1.509,-1.276847 -1.509,-0.232154 -3.48231,-0.116077 -1.97331,0.116077 -3.83054,0.348231 -1.85723,0.116077 -2.5537,0.116077 -0.23215,0 -0.81254,-0.116077 -0.58038,-0.116077 -0.58038,-0.580385 0,-0.348231 0.34823,-0.696462 0.46431,-0.348231 0.81254,-0.348231 h 9.63439 q 0.58039,0 1.509,-1.044693 1.04469,-1.044693 2.20546,-2.32154 1.16077,-1.392924 2.20547,-2.553694 1.16077,-1.16077 1.97331,-1.509001 z m -38.65365,40.394797 q -0.23215,0.232154 -1.9733,0.348231 -1.74116,0 -3.83055,0 -1.9733,0 -3.83054,0 -1.85723,-0.116077 -2.43761,-0.116077 -0.23216,0 -0.58039,0.812539 -0.34823,0.812539 -0.81254,1.857232 -0.46431,0.928616 -0.92861,1.857232 -0.46431,0.928616 -0.81254,1.276847 -0.81254,0.812539 -2.32154,1.392924 -1.39293,0.580385 -3.018,1.044693 -1.62508,0.348231 -3.25016,0.580385 -1.509,0.116077 -2.66977,0.116077 -1.16077,0 -1.16077,-1.16077 0,-11.6077 -0.34823,-22.867169 -0.34823,-11.375547 -0.34823,-22.983247 0,-0.812539 0.4643,-1.044693 0.58039,-0.232154 1.16077,0 1.39293,0.348231 3.36624,1.276847 1.97331,0.812539 3.59838,1.392924 4.29485,1.625078 8.47363,2.669771 4.29484,0.928616 8.93792,0.928616 0.58039,0 1.39293,0.116077 0.92861,0 0.92861,0.812539 0,0.580385 -1.16077,0.580385 -1.16077,-0.116077 -1.509,-0.116077 -0.58038,0 -2.43761,-0.232154 -1.74116,-0.232154 -3.71447,-0.232154 -1.85723,0 -3.36623,0.348231 -1.509,0.232154 -1.509,1.044693 v 28.206712 q 0,1.16077 2.08938,1.276847 2.20547,0.116077 4.75916,0 2.5537,-0.232154 4.64308,-0.232154 2.20546,0 2.20546,1.044693 z M 120.51421,58.089351 q 0.23215,-0.464308 1.509,-0.580385 1.27684,-0.232154 2.78585,-0.232154 1.62507,0 3.018,0.116077 1.509,0 1.97331,0 0.23215,0 0.69646,0.232154 0.58038,0.232154 0.69646,0.464308 -0.23215,0.116077 -1.85723,0.232154 -1.509,0 -3.36623,0 -1.85724,0 -3.48231,0 -1.62508,-0.116077 -1.97331,-0.232154 z m 30.99256,0 q 0,-0.232154 0.58038,-0.464308 0.58039,-0.232154 0.81254,-0.232154 h 7.89324 q 0.23215,0 0.81254,0.232154 0.58038,0.232154 0.58038,0.464308 -0.11608,0.116077 -1.85723,0.232154 -1.62508,0 -3.59839,0 -1.85723,0 -3.48231,0 -1.62508,-0.116077 -1.74115,-0.232154 z m 21.59032,31.456867 q 0.81254,0 2.20546,-1.625078 1.39293,-1.625078 2.78585,-3.598387 1.39292,-1.973309 2.55369,-3.598387 1.16077,-1.625078 1.74116,-1.625078 0.23215,0 1.97331,1.509001 1.85723,1.509001 3.94662,3.48231 2.08938,1.857232 3.83054,3.48231 1.74115,1.625078 1.85723,1.973309 0.34823,1.160771 -0.92862,1.160771 h -41.43949 q -0.58038,0 -0.58038,-0.580385 0,-0.580386 0.58038,-0.580386 z M 89.637724,89.89445 h 41.671646 l 0.34823,0.348231 -0.34823,0.464308 H 89.637724 L 89.173415,90.242681 Z M 243.78798,49.96396 q -0.23215,0.232154 -0.69646,0.812539 -0.34823,0.580385 -0.34823,0.928616 V 99.18061 q 0,2.78585 -1.16077,4.64308 -1.04469,1.85723 -2.78585,3.13408 -1.74115,1.39292 -3.94662,2.20546 -2.20546,0.81254 -4.41092,1.27685 -0.11608,0 -0.23216,0 -0.11607,0.11608 -0.23215,0.11608 -0.46431,0 -0.69646,-0.34823 -0.11608,-0.34824 -0.23216,-0.69647 -0.4643,-1.509 -0.81253,-2.78584 -0.23216,-1.16078 -0.69647,-2.20547 -0.34823,-1.04469 -1.04469,-2.08938 -0.58038,-1.0447 -1.62508,-2.32154 -0.46431,-0.92862 -0.58038,-1.509005 -0.11608,-0.580385 1.509,-0.580385 1.04469,0 1.85723,0.116077 0.92862,0.116077 1.509,0 0.69646,-0.232154 1.16077,-0.696462 0.58039,-0.580385 1.04469,-1.857232 0,-0.116077 0,-0.232154 0.11608,-0.116077 0.11608,-0.232154 V 62.500277 q 0,-1.741155 0.34823,-3.366233 0.46431,-1.625078 0.46431,-3.366234 l -0.58038,-0.580385 q -0.58039,-0.116077 -2.32154,0.464308 -1.62508,0.580385 -3.48231,1.509002 -1.74116,0.812539 -3.13408,1.741155 -1.39293,0.812539 -1.39293,1.276847 0,0.928616 0.92862,1.276847 1.04469,0.232154 2.20546,0.464308 1.27685,0.232154 2.20546,0.580385 0.92862,0.348231 0.92862,1.16077 l -0.81254,23.2154 q 0,0.580385 -0.81254,0.928616 -0.69646,0.348231 -1.74115,0.580385 -0.92862,0.116077 -1.74116,0 -0.69646,-0.232154 -0.69646,-0.812539 V 64.241432 q 0,-0.580385 -0.58038,-0.928616 -0.46431,-0.348231 -1.0447,0 -0.34823,0.348231 -0.34823,0.812539 -0.23215,0.696462 -0.23215,1.392924 0.11607,0.696462 0,1.392924 -0.23216,1.857232 -0.46431,3.714464 -0.11608,1.857232 -0.34823,3.714464 -0.58039,3.830541 -1.27685,7.893236 -0.69646,3.946618 -1.85723,7.77716 -1.16077,3.830541 -2.90193,7.428928 -1.74115,3.598385 -4.17877,6.732465 -0.69646,0.92862 -1.509,1.74116 -0.69646,0.92861 -1.62508,1.62507 l -1.04469,0.69647 q -0.69646,0 -0.69646,-0.92862 0,-2.32154 1.27684,-5.45562 1.27685,-3.134078 1.74116,-5.687772 1.27685,-7.312852 1.74116,-14.625703 0.58038,-7.312851 0.58038,-14.625702 0,-1.741155 -0.34823,-2.205463 -0.34823,-0.464308 -0.92862,-0.348231 -0.58038,0 -1.39292,0.348231 -0.69646,0.348231 -1.39293,0.348231 -0.58038,0 -1.04469,-1.741155 -0.46431,-1.741155 -0.81254,-3.830541 -0.23215,-2.205463 -0.34823,-4.29485 -0.11608,-2.089386 -0.11608,-2.785848 0,-1.044693 0.92862,-1.16077 1.04469,-0.116077 2.20546,0 1.27685,0.116077 2.20547,0 1.04469,-0.116077 1.04469,-1.16077 V 15.837321 q 0,-1.392924 1.509,-0.928616 1.62508,0.464308 3.48231,1.276847 1.97331,0.696462 3.48231,1.16077 1.62508,0.464308 1.62508,-0.928616 V 2.4884659 l 0.46431,-0.696462 q 0.11607,0 0.23215,0 0.11608,-0.116077 0.23216,-0.116077 0.69646,-0.116077 3.13407,0.116077 2.43762,0.232154 4.99132,0.696462 2.55369,0.464308 4.527,1.16077 2.08938,0.696462 2.08938,1.5090011 0,0.696462 -1.74115,2.437617 -1.62508,1.7411551 -3.83054,3.714464 -2.08939,1.857232 -4.17877,3.714464 -1.97331,1.741155 -2.66977,2.553694 l -0.23216,0.696462 0.23216,0.696462 0.23215,0.232154 0.81254,0.348231 q 2.90192,0 4.29485,0 1.509,-0.116077 2.43761,-0.580385 0.92862,-0.464308 1.85724,-1.509001 1.04469,-1.044693 3.018,-3.018002 l 0.81254,-0.232154 q 0.69646,0.116077 2.20546,1.044693 1.509,0.928616 3.018,2.089386 1.509,1.16077 2.5537,2.437617 1.16077,1.16077 1.04469,1.857232 -0.23215,0.812539 -0.92862,1.276847 -0.69646,0.464309 -0.69646,1.160771 v 24.492247 q 0,0.232154 0.23216,0.464308 0.23215,0.232154 0.4643,0.348231 z m 62.21728,50.72565 q 0.46431,-0.34823 1.04469,-1.044692 0.58039,-0.812539 1.16077,-0.812539 0.34823,0 1.27685,1.044693 0.92861,0.928618 1.85723,2.089388 1.04469,1.27684 1.85723,2.43761 0.81254,1.16077 0.81254,1.50901 0,0.34823 -0.58038,0.69646 -0.58039,0.34823 -0.92862,0.34823 h -68.71759 q -0.23215,0 -0.4643,-0.23215 0,-0.58039 0.92861,-0.81254 1.0447,-0.23216 2.32154,-0.23216 1.39293,0 2.5537,0 1.27684,0.11608 1.74115,0.11608 0.58039,0 0.69646,-1.39293 0.23216,-1.27684 0.23216,-3.018 0,-1.741152 -0.23216,-3.250153 -0.11607,-1.625078 -0.11607,-2.205463 -0.23216,-4.759157 -0.34823,-9.518315 -0.11608,-4.759157 -0.11608,-9.518314 0,-2.089386 0.11608,-4.875234 0.23215,-2.785848 -0.34824,-4.759157 -0.69646,-0.696462 -1.39292,-0.928616 -0.58038,-0.232154 -0.81254,-1.276847 -0.23215,-0.696462 -0.23215,-1.392924 0,-0.812539 0,-1.625078 -0.23216,-3.018002 -0.46431,-6.036005 -0.11608,-3.134079 -0.11608,-6.268158 0,-6.616389 0.34823,-13.116701 0.46431,-6.616389 0.46431,-13.232778 0,-4.178773 -0.46431,-8.241468 -0.34823,-4.178772 -0.34823,-8.357544 0,-0.464308 0.11608,-0.812539 0.23215,-0.464308 0.81254,-0.464308 0.34823,0 0.81254,0.232154 3.83054,1.741155 6.96462,2.9019251 3.13408,1.044693 7.545,1.044693 1.16077,0 2.43762,0 1.39292,0 2.55369,-0.232154 0.81254,-0.116077 1.62508,-1.16077 0.81254,-1.0446931 1.509,-2.2054631 0.69646,-1.276847 1.39293,-2.2054631 0.69646,-1.044693 1.39292,-1.044693 0.23216,0 1.27685,1.044693 1.16077,0.9286161 2.43762,2.2054631 1.39292,1.16077 2.55369,2.3215401 1.27685,1.044693 1.74115,1.392924 l 0.23216,0.5803849 q 0,1.16077 -1.97331,1.16077 -1.85723,0 -4.17877,-0.116077 -2.20547,-0.232154 -4.17878,-0.116077 -1.85723,0 -1.85723,1.276847 v 8.473621 q 0,0.464308 1.39293,0.812539 1.509,0.232154 3.25015,0.812539 1.74116,0.464309 3.13408,1.276848 1.509,0.812539 1.509,2.32154 0,4.062695 -0.34823,8.009313 -0.34823,3.830541 -0.46431,7.893236 -0.81253,2.089386 -2.20546,2.553694 -1.39292,0.348231 -2.78585,0.696462 -1.39292,0.232154 -2.43761,1.276847 -0.92862,1.044693 -0.92862,4.294849 v 3.134079 l 0.34823,0.696462 0.69646,0.232154 q 0.69646,0 1.16077,-0.580385 0.58039,-0.580385 0.92862,-1.276847 0.46431,-0.812539 0.81254,-1.509001 0.34823,-0.812539 0.69646,-1.276847 l 0.69646,-0.348231 q 0.46431,0.116077 1.62508,1.044693 1.16077,0.928616 2.43762,2.089386 1.39292,1.16077 2.55369,2.32154 1.16077,1.044694 1.509,1.509002 0.11608,0.116077 0.23216,0.348231 0.23215,0.232154 0.23215,0.348231 -0.23215,0.580385 -0.81254,1.16077 -0.58038,0.464308 -1.16077,0.464308 h -24.14402 q -0.34823,0 -1.04469,0.928616 -0.58038,0.812539 -1.16077,1.973309 -0.46431,1.16077 -0.92861,2.32154 -0.34824,1.044693 -0.34824,1.392924 0,0.696462 1.27685,1.509001 1.39293,0.812539 3.13408,1.509001 1.74116,0.696462 3.36623,1.16077 1.74116,0.464308 2.43762,0.464308 h 23.91186 q 1.39293,0 2.20547,-1.044693 0.81254,-1.16077 1.509,-2.437617 0.69646,-1.392924 1.39292,-2.437617 0.69646,-1.16077 1.85723,-1.16077 0.81254,0 2.66977,1.044693 1.97331,1.044693 3.83055,2.437617 1.9733,1.392924 3.36623,2.901925 1.509,1.392924 1.509,2.205463 0,0.348231 -0.58038,0.696462 -0.58039,0.348231 -1.27685,0.696462 -0.58039,0.348231 -1.16077,0.812539 -0.58039,0.348231 -0.58039,0.928616 V 99.18061 l 0.69646,1.27685 0.46431,0.34823 z M 303.33549,8.5244701 q -0.58039,0.696462 -1.39293,1.16077 -0.81254,0.4643079 -1.39292,1.1607699 -0.23216,0.232154 -1.16077,2.669771 -0.81254,2.437617 -1.85723,5.339542 -0.92862,2.901925 -1.74116,5.45562 -0.81254,2.437617 -0.81254,2.901925 0,1.625078 1.509,1.625078 1.39293,0 2.32154,-1.16077 0.92862,-1.276847 1.62508,-2.785848 0.81254,-1.509001 1.509,-2.669772 0.81254,-1.276847 1.97331,-1.276847 0.11608,0 1.27685,1.16077 1.16077,1.160771 2.55369,2.669772 1.39293,1.392924 2.5537,2.669771 1.16077,1.276847 1.27684,1.509001 0.23216,0.580385 0,1.16077 -0.11607,0.580385 -0.92861,0.580385 h -16.59901 q -0.69647,0 -2.20547,2.553694 -1.509,2.437617 -3.36623,5.455619 -1.74115,2.901925 -3.48231,5.455619 -1.74115,2.437617 -2.66977,2.437617 -0.69646,0 -0.69646,-0.928616 0,-8.009313 1.85723,-15.670395 1.97331,-7.77716 3.83054,-15.438242 0.58039,-2.32154 0.58039,-4.7591569 0.11607,-2.4376171 0.81253,-4.7591571 0.23216,-0.4643081 0.34824,-0.6964621 0.23215,-0.348231 0.81253,-0.348231 0.92862,0 3.01801,0.348231 2.08938,0.348231 4.29485,0.9286161 2.20546,0.464308 3.94661,1.276847 1.85724,0.696462 2.32154,1.392924 z m -40.85911,4.7591569 q 0,-0.812539 -0.81254,-1.16077 -0.69646,-0.464308 -1.62508,-0.464308 -0.81253,-0.116077 -1.509,0.232154 -0.69646,0.232154 -0.69646,0.696462 v 11.607701 q 0,0.232154 0.69646,0.580385 0.69647,0.232154 1.509,0.232154 0.92862,0 1.62508,-0.348231 0.81254,-0.348231 0.81254,-1.276847 z m -42.13595,8.821852 q -0.46431,0.928616 -0.46431,1.392925 0,0.580385 1.39293,2.205463 1.509,1.509001 3.48231,3.134079 1.9733,1.625078 3.71446,2.901925 1.85723,1.16077 2.55369,1.16077 0.23216,0 0.34823,-0.348231 0.11608,-0.348231 0.11608,-0.580385 v -10.0987 q 0,-0.580385 -0.34823,-0.696462 -0.23215,-0.116077 -0.69646,-0.116077 -0.58039,0 -2.20546,0.116077 -1.50901,0 -3.13408,0.116077 -1.62508,0.116077 -3.01801,0.348231 -1.39292,0.232154 -1.74115,0.464308 z m 38.65364,4.410927 q -1.16077,0 -1.16077,1.16077 v 12.304162 q 0,1.16077 1.16077,1.16077 h 10.79516 q 1.16077,0 1.16077,-1.16077 V 27.677176 q 0,-1.16077 -1.16077,-1.16077 z m -38.07326,1.044693 q -0.4643,0.116077 -0.81253,0.696462 -0.23216,0.464308 -0.23216,0.812539 l -0.69646,19.617013 q 0,0.928616 0.69646,1.392924 0.69646,0.464308 1.509,0.464308 2.20547,0 4.52701,0 2.43761,-0.116077 4.527,-0.696462 0.92861,-0.232154 1.04469,-1.16077 0.23216,-0.812539 0.11608,-1.625078 0,-0.812539 0,-1.625078 0,-0.812539 -0.58039,-0.928616 -0.58038,-0.232154 -1.39292,-0.116077 -0.81254,0.116077 -1.62508,0.464308 -0.69646,0.232154 -1.16077,0.232154 -0.58038,0 -1.85723,-0.580385 -1.16077,-0.580385 -1.16077,-1.276847 0,-1.392924 0,-3.598387 0,-2.205463 -0.23215,-4.410926 -0.23216,-2.32154 -0.81254,-4.294849 -0.46431,-2.089386 -1.39293,-3.134079 z m 39.58226,15.322164 q -0.58038,0 -1.62508,0.464308 -1.04469,0.348231 -1.04469,1.16077 v 11.491623 q 0,0.580386 0.69646,1.044694 0.69647,0.464308 1.27685,0.464308 0.34823,0 1.39292,-0.580385 1.16077,-0.580386 1.16077,-1.044694 V 44.740495 q 0,-0.580385 -0.69646,-1.044693 -0.69646,-0.580385 -1.16077,-0.812539 z m 50.72565,10.214776 -0.34823,0.464308 h -24.60832 q -0.58039,0 -0.58039,-0.580385 0,-0.696462 1.27685,-0.696462 1.27685,0 2.90192,0.116077 1.62508,0.116077 3.25016,0.232154 1.62508,0 2.20546,-0.580385 0.46431,-0.464308 1.27685,-1.857232 0.81254,-1.392924 1.62508,-2.785848 0.92861,-1.509001 1.74115,-2.669771 0.92862,-1.16077 1.509,-1.16077 0.46431,0 1.74116,1.276847 1.39292,1.16077 2.90192,2.785848 1.50901,1.509001 2.90193,3.018002 1.39292,1.392924 1.97331,1.857232 z m -19.38486,20.54563 q 0,-0.580385 -0.58038,-0.696462 -0.58039,-0.232154 -1.04469,-0.232154 -0.92862,0 -1.50901,0.232154 -0.4643,0.116077 -0.69646,1.16077 -0.34823,2.32154 -0.34823,4.759157 0.11608,2.32154 0,4.64308 -0.23215,4.991311 -0.34823,9.866546 -0.11608,4.875234 -0.11608,9.86654 0,1.0447 0.69647,1.50901 0.69646,0.58038 1.509,0.69646 0.92861,0.11607 1.62507,-0.11608 0.81254,-0.23215 0.81254,-0.69646 z m -24.7244,0 q 0,-0.464308 -0.58038,-0.696462 -0.58039,-0.232154 -1.39293,-0.232154 -0.69646,0 -1.27684,0.232154 -0.58039,0.232154 -0.58039,0.696462 v 30.992561 q 0,0.46431 0.58039,0.69646 0.58038,0.23215 1.27684,0.11608 0.81254,-0.11608 1.39293,-0.46431 0.58038,-0.34823 0.58038,-1.16077 z m 12.42024,0 q 0,-0.580385 -0.46431,-0.696462 -0.4643,-0.116077 -0.92861,-0.116077 -1.0447,0 -2.20547,0.116077 -1.04469,0 -1.04469,1.509001 v 28.671022 q 0,1.04469 0.69646,1.62508 0.69647,0.58038 1.509,0.58038 0.92862,0.11608 1.62508,-0.23215 0.81254,-0.34823 0.81254,-1.27685 z M 382.5,5.158237 q -0.11607,0.464308 -0.69646,0.812539 -0.46431,0.348231 -1.04469,0.696462 -0.46431,0.348231 -0.92862,0.696462 -0.46431,0.348231 -0.46431,0.8125391 V 69.000589 q 0,2.32154 -0.23215,4.64308 -0.11608,2.32154 -0.58038,4.64308 -0.23216,1.044693 -1.97331,1.741155 -1.62508,0.696462 -3.71447,1.044693 -2.08938,0.348231 -4.17877,0.464308 -1.97331,0.116077 -2.90193,0.116077 -1.16077,0 -1.16077,-1.16077 V 3.8813899 q 0,-1.16077 1.39293,-1.16077 4.06269,0 8.00931,0.696462 3.94662,0.696462 7.89324,1.276847 z m 29.36749,1.509001 -0.34824,0.696462 q -0.58038,0.348231 -1.74115,1.1607701 -1.04469,0.696462 -1.04469,1.5090009 v 23.331478 q 0,0.812539 0.81254,0.812539 0.92861,0 1.85723,-1.276847 0.92861,-1.392924 1.85723,-3.018002 0.92862,-1.741155 1.74115,-3.018002 0.92862,-1.392924 1.74116,-1.392924 0.34823,0 1.62508,1.16077 1.27684,1.044693 2.78585,2.553694 1.62507,1.392924 3.018,2.785848 1.39292,1.276847 1.85723,1.741155 0.11608,0.116077 0.46431,0.580385 0.46431,0.348231 0.81254,0.812539 0.4643,0.464308 0.81254,0.812539 0.34823,0.348231 0.34823,0.464308 -0.11608,0.464308 -0.58039,0.696462 -0.46431,0.232154 -0.92861,0.232154 h -17.41155 q -1.16077,0 -1.16077,1.16077 v 36.79641 q 0,0.928616 -1.85724,1.625078 -1.85723,0.580385 -4.29485,1.044693 -2.43761,0.348231 -4.75915,0.580385 -2.20547,0.116077 -3.01801,0.116077 -1.16077,0 -1.16077,-1.16077 V 5.970776 q 0,-1.16077 1.16077,-1.16077 8.47363,0 17.06332,1.392924 z m -60.82435,90.540063 q 0.23215,0.232154 0.69646,0.812539 0.58038,0.464308 0.92861,0.464308 l 48.28804,-0.812539 q 1.16077,0 2.55369,-1.741155 1.509,-1.741155 2.78585,-3.830541 1.27685,-2.205463 2.32154,-3.946619 1.16077,-1.741155 1.74115,-1.741155 0.34824,0 2.32154,1.625078 2.08939,1.625078 4.41093,3.714465 2.43762,1.973309 4.41093,3.946618 1.97331,1.857232 2.20546,2.32154 0.81254,1.625078 -0.92862,1.625078 h -69.99443 q -1.16077,0 -1.16077,1.276842 0,3.01801 -1.39292,4.87524 -1.39293,1.85723 -3.48231,2.90192 -2.08939,1.0447 -4.64308,1.39293 -2.5537,0.34823 -4.99132,0.34823 -1.16077,0 -1.16077,-1.16077 V 6.551161 q 0,-0.928616 0.81254,-0.928616 4.17878,0 8.24147,0.464308 4.17877,0.464308 8.35755,0.928616 0.69646,0.464308 0.92861,0.812539 -0.58038,0.6964621 -1.27685,1.1607701 -0.69646,0.348231 -1.27684,1.0446929 -0.23216,0.348231 -0.46431,3.946618 -0.23215,3.48231 -0.34823,9.054006 -0.11608,5.571697 -0.23216,12.768471 0,7.080697 -0.11607,14.625702 0,7.545006 0,14.973934 0,7.428928 0,13.813163 0.11607,6.268158 0.11607,10.911239 0,4.527003 0,6.268158 z m 3.13407,-60.243965 q 0,-0.232154 0.92862,-0.348231 0.92862,-0.232154 2.08939,-0.232154 1.27684,0 2.43761,0.116077 1.16077,0.116077 1.509,0.464308 0,0.348231 -0.81253,0.464308 -0.69647,0 -0.92862,0 -0.34823,0 -1.16077,0.116077 -0.81254,0 -1.62508,0 -0.81254,0 -1.509,-0.116077 -0.69646,-0.116077 -0.92862,-0.464308 z m -34.01056,0 -0.23215,-0.348231 q 0.11608,-0.116077 2.20546,-0.116077 2.08939,0 4.41093,0 2.43761,0 4.41092,0 2.08939,0 2.20547,0.116077 -0.11608,0.232154 -0.69647,0.464308 -0.4643,0.232154 -0.69646,0.232154 h -10.79516 z m 62.79766,0.348231 q -0.23215,0 -0.69646,-0.116077 -0.34823,-0.232154 -0.34823,-0.580385 0.11608,-0.116077 1.39292,-0.116077 1.39293,0 3.018,0 1.62508,0 2.90193,0 1.39292,0 1.509,0.116077 l -0.23215,0.348231 -0.81254,0.348231 z m -0.11608,30.99256 q 0.46431,0 1.62508,0 1.16077,0 2.32154,0 1.27685,0 2.32154,0.116077 1.0447,0 1.39293,0.116077 l 0.23215,0.348231 q -0.23215,0.116077 -1.39292,0.232154 -1.16077,0 -2.66977,0 -1.39293,0 -2.78585,0 -1.27685,-0.116077 -1.74116,-0.116077 l -0.23215,-0.232154 0.11608,-0.116077 z m 97.85293,1.16077 q -0.23216,5.919927 -1.39293,11.375546 -1.04469,5.339542 -3.36623,10.0987 -2.32154,4.64308 -6.03601,8.589698 -3.71446,3.830539 -9.28616,6.616389 -2.78584,1.39292 -6.61638,2.20546 -3.71447,0.81254 -6.84855,0.81254 -0.34823,0 -1.16077,0 -0.69646,0 -0.69646,-0.58038 0,-0.34823 0.46431,-0.81254 0.46431,-0.34823 0.69646,-0.58039 4.29485,-3.25015 7.31285,-5.68777 3.018,-2.437617 5.10739,-4.527003 2.08939,-2.205463 3.25016,-4.410926 1.16077,-2.32154 1.74115,-5.223466 0.69646,-2.901925 0.81254,-6.732466 0.23215,-3.946618 0.23215,-9.518314 0,-1.16077 -1.16077,-1.16077 -2.55369,0 -5.22346,1.16077 -2.66977,1.044693 -5.45562,2.32154 -2.78585,1.276847 -5.68777,2.437617 -2.90193,1.044693 -5.80385,1.044693 -0.46431,0 -0.81254,0 -0.23216,0 -0.58039,-0.232154 1.62508,-0.928616 4.527,-2.553694 2.90193,-1.741155 6.15209,-3.830541 3.36623,-2.205463 6.73246,-4.64308 3.36624,-2.553694 6.03601,-4.991311 2.78584,-2.553694 4.527,-4.991312 1.74115,-2.437617 1.74115,-4.410926 0,-0.580385 -0.58038,-0.696462 -0.58039,-0.232154 -1.04469,-0.232154 -2.08939,0 -4.0627,0.928616 -1.85723,0.812539 -3.71446,1.857232 -1.74116,1.044693 -3.71447,1.973309 -1.85723,0.812539 -3.94661,0.812539 -0.69647,0 -1.50901,0 -0.81254,-0.116077 -0.81254,-1.16077 0,-12.652393 -0.4643,-25.072632 -0.34823,-12.536317 -0.34823,-25.1887101 0,-0.464308 0.11607,-0.812539 0.23216,-0.464308 0.81254,-0.464308 0.58039,0 2.43762,1.044693 1.97331,0.9286161 4.41093,2.0893861 2.55369,1.16077 5.22346,2.2054631 2.66977,0.928616 4.87523,0.928616 h 44.80573 q 1.39292,0 2.32154,-1.044693 0.92861,-1.0446931 1.74115,-2.3215401 0.92862,-1.3929241 1.74116,-2.6697711 0.81254,-1.276847 2.08938,-1.741155 0.69647,0.232154 2.78585,1.741155 2.20547,1.5090011 4.41093,3.3662331 2.32154,1.7411551 4.06269,3.366233 1.85724,1.625078 1.85724,2.089386 0,0.348231 -0.58039,0.696462 -0.58038,0.348231 -1.27685,0.812539 -0.58038,0.464308 -1.16077,0.928616 -0.58038,0.464308 -0.58038,1.044693 v 35.519563 q 0,0.928616 -1.85723,1.509001 -1.74116,0.580385 -4.0627,0.928616 -2.20546,0.348231 -4.41092,0.580385 -2.08939,0.116077 -2.78585,0.116077 -0.69647,0 -1.0447,-0.696462 -0.23215,-0.696462 -0.58038,-1.509001 -0.23216,-0.928616 -0.69646,-1.625078 -0.46431,-0.812539 -1.39293,-0.812539 -0.92861,0 -2.32154,0.116077 -1.39292,0 -2.90192,0 -1.509,0 -2.90193,-0.116077 -1.27684,-0.116077 -2.08938,-0.580385 0.23215,-0.580385 2.08938,-0.464308 1.97331,0 4.0627,0.116077 2.20546,0 3.94662,-0.116077 1.85723,-0.232154 1.85723,-1.276847 V 12.122857 q 0,-1.16077 -1.16077,-1.16077 h -15.43824 q -1.16077,0 -1.16077,1.16077 V 47.64242 q 0.11607,0.232154 0.23215,0.580385 0.11608,0.348231 0.34823,0.580385 -0.23215,0.464308 -1.16077,0.812539 -0.92861,0.348231 -2.08938,0.580385 -1.16077,0.116077 -2.32154,0.232154 -1.0447,0 -1.50901,0 l -0.81253,0.348231 q -3.01801,2.901925 -5.80386,5.919928 -2.66977,3.018002 -6.15208,5.339542 -0.58038,0.348231 -1.16077,0.812539 -0.4643,0.348231 -0.4643,1.16077 0,1.044693 1.509,1.276847 1.509,0.232154 2.90192,0.464308 1.509,0.116077 1.97331,0.696462 0.58039,0.580385 -1.39292,2.205463 z M 464.45038,46.945958 q 0,1.16077 1.16077,1.16077 h 15.43824 q 1.16077,0 1.16077,-1.16077 V 12.122857 q 0,-1.16077 -1.16077,-1.16077 h -15.43824 q -1.16077,0 -1.16077,1.16077 z m 14.97393,-17.41155 q -0.69646,0 -2.66977,0.116077 -1.85723,0 -3.94662,0 -2.08939,0 -3.83054,0 -1.62508,-0.116077 -1.97331,-0.232154 l 0.23215,-0.348231 q 0.34823,-0.116077 1.97331,-0.116077 1.62508,-0.116077 3.48231,-0.116077 1.85723,0 3.59839,0 1.74115,0 2.43762,0 l 0.81254,0.348231 0.11607,0.116077 z m 20.1974,-0.696462 h 11.6077 l 0.81254,0.348231 0.11607,0.116077 -0.23215,0.232154 h -12.30416 l -0.34823,-0.348231 z m 2.32154,23.911862 q 0.46431,0 1.509,0.580385 1.04469,0.464308 2.20546,1.16077 1.27685,0.580385 2.43762,1.276847 1.16077,0.580385 1.74115,0.81254 7.54501,3.830541 15.43825,5.687773 8.00931,1.741155 16.25078,2.901925 l 0.34823,0.348231 -0.34823,0.696462 q -2.90193,2.089386 -4.52701,4.410926 -1.62508,2.205463 -3.018,5.455619 -0.23215,0.696462 -0.81254,2.32154 -0.46431,1.509001 -1.39292,1.509001 -2.32154,0 -4.87524,-1.392924 -2.43761,-1.509001 -4.87523,-3.366233 -2.32154,-1.857232 -4.41093,-3.366233 -1.97331,-1.625078 -3.25015,-1.973309 l -0.58039,0.232154 -0.23215,0.232154 -0.34823,0.812539 v 35.867795 q 0,1.04469 -1.74116,1.62508 -1.74115,0.69646 -3.94662,1.04469 -2.20546,0.46431 -4.29485,0.58039 -2.08938,0.11607 -2.90192,0.11607 -1.04469,0 -1.04469,-1.04469 V 65.170048 q 0,-0.232154 0.11607,-0.696462 0.23216,-0.464308 0.58039,-0.464308 0.46431,0 1.509,0.232154 1.16077,0.116077 2.32154,0.232154 1.16077,0 1.97331,-0.232154 0.81254,-0.232154 0.81254,-1.16077 0,-0.812539 -0.81254,-1.973309 -0.69646,-1.16077 -1.62508,-2.437617 -0.92862,-1.276847 -1.74115,-2.669772 -0.81254,-1.392924 -0.92862,-2.785848 z"
     id="text1"
     aria-label="軍艦世界" />
  <defs
     id="defs36" />
  <sodipodi:namedview
     id="namedview34"
     pagecolor="#ff00ff"
     bordercolor="#000000"
     borderopacity="0.25"
     inkscape:showpageshadow="2"
     inkscape:pageopacity="0"
     inkscape:pagecheckerboard="0"
     inkscape:deskcolor="#d1d1d1"
     showgrid="false"
     inkscape:zoom="2.8284271"
     inkscape:cx="288.32279"
     inkscape:cy="118.61716"
     inkscape:window-width="2560"
     inkscape:window-height="1494"
     inkscape:window-x="-11"
     inkscape:window-y="-11"
     inkscape:window-maximized="1"
     inkscape:current-layer="svg32" />
  <path
     id="path138"
     d="M 0,8.8584374 V 44.803204 L 14.310823,55.20915 V 23.169258 h 5.892699 V 8.8584374 Z m 26.096221,0 V 23.169258 h 4.209064 v 5.892699 H 20.203522 v 35.793531 l 10.101763,7.181707 v 8.54309 L 14.310823,68.929731 V 61.572083 L 0,51.108588 V 76.076914 L 37.0398,103.14156 74.079602,76.076914 V 51.116812 L 59.768748,61.58195 v 7.356005 L 43.774318,80.572088 V 72.037194 L 53.876079,64.855487 V 29.061957 H 43.774318 v -5.892699 h 4.209063 V 8.8584374 Z m 27.779858,0 V 23.169258 h 5.892669 v 31.41675 L 74.079602,44.374076 V 8.8584374 Z m -16.828058,26.3148836 3.434661,8.704235 9.190899,0.621494 -7.027198,5.869674 2.180201,9.031417 -7.795032,-4.932498 -7.778536,4.932498 2.188392,-9.039641 -7.045235,-5.892707 9.225376,-0.623115 z"
     style="fill:#ffffff;fill-opacity:1;stroke-width:0.841819" />
</svg>
